<?xml version="1.0" encoding="UTF-8"?>
<!DOCTYPE svg PUBLIC "-//W3C//DTD SVG 1.1//EN" "http://www.w3.org/Graphics/SVG/1.1/DTD/svg11.dtd">
<!-- Creator: CorelDRAW X7 -->
<svg xmlns="http://www.w3.org/2000/svg" xml:space="preserve" width="125mm" height="72mm" version="1.1" style="shape-rendering:geometricPrecision; text-rendering:geometricPrecision; image-rendering:optimizeQuality; fill-rule:evenodd; clip-rule:evenodd"
viewBox="0 0 12500 7200"
 xmlns:xlink="http://www.w3.org/1999/xlink">
 <defs>
  <style type="text/css">
   <![CDATA[
    .fil1 {fill:#171717}
    .fil2 {fill:#333333;fill-rule:nonzero}
    .fil0 {fill:url(#id0)}
   ]]>
  </style>
  <linearGradient id="id0" gradientUnits="userSpaceOnUse" x1="5325.87" y1="7084.59" x2="5325.87" y2="134.15">
   <stop offset="0" style="stop-opacity:1; stop-color:#FF8800"/>
   <stop offset="1" style="stop-opacity:1; stop-color:#FF8800"/>
  </linearGradient>
 </defs>
 <g id="Слой_x0020_1">
  <metadata id="CorelCorpID_0Corel-Layer"/>
  <g id="_2780600130144">
   <g>
    <path class="fil0" d="M10159 3944c-136,0 -247,-111 -247,-247 0,-137 111,-247 247,-247 136,0 247,110 247,247 0,136 -111,247 -247,247zm353 458l0 0c0,104 0,600 0,600 0,234 -190,423 -424,423l-3417 318c0,0 -624,622 -1022,1019 -187,186 -324,323 -324,323l-1 -4c0,0 -137,-136 -323,-321 -397,-396 -1020,-1017 -1020,-1017l-3418 -318c-233,0 -423,-189 -423,-423l0 -3598c0,-234 190,-424 423,-424l852 94c-4,-26 -5,-54 -5,-81l9 -710c35,-112 154,-174 266,-139l3594 1356 47 5 16 -1 3772 -1339c111,-35 230,27 265,139l9 707c0,16 -1,31 -2,47l702 -78c234,0 424,190 424,424l0 1622c0,0 0,106 -108,106 -135,0 -494,0 -494,0 0,0 -104,1 -104,-108 0,-289 0,-1056 0,-1056 0,-117 -95,-212 -212,-212l-3880 424c-117,0 -212,94 -212,211l0 318c0,0 0,176 -177,176 -176,0 -176,-176 -176,-176l0 -318c0,-117 -94,-211 -211,-211l-3881 -424c-117,0 -211,95 -211,212l0 2575c0,117 94,212 211,212l3140 317 811 812 141 141 0 -1235c0,0 -2,-176 176,-176 177,0 177,176 177,176l0 1235 141 -141 812 -812 3139 -317c117,0 212,-95 212,-212 0,0 0,-31 0,-139 0,-108 104,-108 104,-108l494 0c0,0 108,3 108,106zm-8467 -3669l0 0 1589 599 -1730 -211 0 -247c0,-78 63,-141 141,-141zm6703 0l0 0 -1588 600 1729 -211 0 -247c0,-78 -63,-142 -141,-142z"/>
   </g>
   <g>
    <path class="fil1" d="M8681 4173l0 -425 -388 426 -70 0 0 -866c67,0 134,0 201,0l0 424 389 -427 71 0 0 868c-67,0 -135,0 -203,0zm-876 0l0 0c-66,0 -133,0 -200,0l0 -865c157,0 322,0 479,0 0,73 0,124 0,198l-279 0 0 667zm-600 -425l0 0 -388 426 -70 0 0 -866c67,0 134,0 201,0l0 424 389 -427 71 0 0 868c-67,0 -135,0 -203,0l0 -425zm-857 78l0 0 -237 0 0 347c-67,0 -135,0 -201,0l0 -865c66,0 134,0 201,0l0 314 237 0 0 -314c67,0 134,0 201,0l0 865c-67,0 -134,0 -201,0l0 -347zm-941 12l0 0c-26,5 -50,5 -75,5l0 330c-69,0 -135,0 -200,0l0 -865c65,0 131,0 200,0l0 328 14 0c196,0 187,-166 187,-328 67,0 134,0 202,0 0,177 4,340 -149,450l209 380 0 35 -218 0 -170 -335zm-1214 -96l0 0c0,-598 789,-598 789,0 0,599 -789,599 -789,0zm202 0l0 0c0,314 386,314 386,0 0,-311 -386,-311 -386,0zm-465 431l0 0c-64,0 -129,0 -194,0l0 -667 -189 0c0,-67 0,-132 0,-198l571 0c0,66 0,131 0,198l-188 0 0 667zm-1245 -431l0 0c0,-598 789,-598 789,0 0,599 -789,599 -789,0zm203 0l0 0c0,314 385,314 385,0 0,-311 -385,-311 -385,0zm-667 378l0 0 0 70 -176 0 0 -70c-199,-7 -373,-111 -373,-381 0,-268 174,-353 373,-360l0 -70 176 0 0 70c199,7 363,92 363,360 0,270 -164,374 -363,381zm-184 -540l0 0c-85,4 -164,36 -164,159 0,124 84,156 164,161l0 -320zm182 0l0 0 0 320c81,-5 164,-37 164,-161 0,-123 -79,-155 -164,-159z"/>
   </g>
   <g>
    <path class="fil2" d="M11246 3601c-22,14 -41,32 -56,53l-1 -2c-2,-50 8,-88 31,-114 22,-27 55,-40 98,-42 58,-1 102,-12 131,-34 29,-21 43,-59 41,-112l0 -3 -73 0c0,23 -9,39 -27,48 -18,10 -45,16 -81,18 -66,3 -115,29 -148,79 -33,49 -49,126 -49,231l0 128c-1,2 -1,4 -1,6 0,2 0,4 0,7l0 14c0,84 18,151 53,204 35,53 83,79 144,79 61,0 109,-26 144,-79 35,-53 52,-120 52,-204l0 -14c0,-83 -16,-151 -49,-204 -33,-53 -79,-80 -136,-80 -26,0 -50,7 -73,21zm139 118l0 0c17,38 26,87 26,145l0 14c0,59 -9,108 -26,146 -17,38 -43,57 -77,57 -35,0 -61,-19 -78,-57 -17,-38 -26,-87 -26,-146l0 -14c0,-58 9,-106 26,-145 17,-39 43,-58 77,-58 35,0 61,19 78,58z"/>
   </g>
   <g>
    <path class="fil2" d="M11859 4141c27,-13 49,-29 66,-48l-31 -66c-16,18 -34,31 -53,41 -19,9 -42,13 -68,13 -38,0 -66,-18 -84,-53 -18,-35 -27,-82 -27,-139l270 0 0 -59c0,-76 -15,-137 -45,-182 -29,-45 -73,-68 -129,-68 -57,0 -102,27 -137,79 -35,53 -53,120 -53,202l0 24c0,82 18,148 53,199 35,51 84,77 145,77 35,0 66,-7 93,-20zm-39 -441l0 0c13,27 20,61 20,103l0 12 -177 0c4,-47 14,-84 30,-112 16,-28 38,-42 65,-42 28,0 48,13 62,39z"/>
   </g>
   <g>
    <path class="fil2" d="M12058 3591l0 242c0,88 -5,149 -14,182 -10,34 -29,51 -56,51l-14 0 0 84 20 0c57,0 98,-25 122,-76 24,-51 35,-131 35,-241l0 -161 128 0 0 478 94 0 0 -559 -315 0z"/>
   </g>
  </g>
 </g>
</svg>
