<?xml version="1.0" encoding="UTF-8"?>
<!DOCTYPE svg PUBLIC "-//W3C//DTD SVG 1.1//EN" "http://www.w3.org/Graphics/SVG/1.1/DTD/svg11.dtd">
<!-- Creator: CorelDRAW X7 -->
<svg xmlns="http://www.w3.org/2000/svg" xml:space="preserve" width="39.7932mm" height="14.6472mm" version="1.1" style="shape-rendering:geometricPrecision; text-rendering:geometricPrecision; image-rendering:optimizeQuality; fill-rule:evenodd; clip-rule:evenodd"
viewBox="0 0 3979 1465"
 xmlns:xlink="http://www.w3.org/1999/xlink"
 xmlns:dc="http://purl.org/dc/elements/1.1/"
 xmlns:cc="http://creativecommons.org/ns#"
 xmlns:rdf="http://www.w3.org/1999/02/22-rdf-syntax-ns#"
 xmlns:svg="http://www.w3.org/2000/svg"
 xmlns:sodipodi="http://sodipodi.sourceforge.net/DTD/sodipodi-0.dtd"
 xmlns:inkscape="http://www.inkscape.org/namespaces/inkscape"
 inkscape:version="0.91 r13725"
 sodipodi:docname="logo-black-yellow.svg">
 <defs>
  <style type="text/css">
   <![CDATA[
    .fil1 {fill:white;fill-rule:nonzero}
    .fil0 {fill:#FFAF1F;fill-rule:nonzero;fill-opacity:0.941176}
   ]]>
  </style>
 </defs>
 <g id="Слой_x0020_1">
  <metadata id="CorelCorpID_0Corel-Layer"/>
  <sodipodi:namedview pagecolor="#ffffff" bordercolor="#666666" borderopacity="1" objecttolerance="10" gridtolerance="10" guidetolerance="10" inkscape:pageopacity="0" inkscape:pageshadow="2" inkscape:window-width="1680" inkscape:window-height="987" id="namedview3425" showgrid="false" inkscape:zoom="1.0957312" inkscape:cx="632.9589" inkscape:cy="265.41837" inkscape:window-x="-8" inkscape:window-y="-8" inkscape:window-maximized="1" inkscape:current-layer="svg3393"/>
 </g>
 <g id="Слой_x0020_1_0">
  <metadata id="CorelCorpID_1Corel-Layer"/>
  <g id="_2926909444624">
   <path id="path3402" class="fil0" d="M361 74l0 238 76 0 0 -161 1822 0 0 51c-71,17 -124,82 -124,157 0,76 53,140 124,157l0 56c-71,18 -124,82 -124,157 0,76 53,140 124,157l0 56c-71,18 -124,82 -124,157 0,76 53,140 124,157l0 52 -1822 0 0 -209 -76 0 0 285 1974 0 0 -200 -38 0c-47,0 -85,-37 -85,-85 0,-47 38,-85 85,-85l38 0 0 -200 -38 0c-47,0 -85,-37 -85,-85 0,-47 38,-85 85,-85l38 0 0 -200 -38 0c-47,0 -85,-37 -85,-85 0,-47 38,-85 85,-85l38 0 0 -200 -1974 0 0 0z" inkscape:connector-curvature="0"/>
  </g>
  <g id="_2926909445040">
   <path id="path3405" class="fil1" d="M2857 435l-297 0 0 541 185 0c52,0 92,-15 121,-45 29,-31 43,-71 43,-120 0,-49 -14,-88 -43,-117 -29,-30 -69,-45 -121,-45l-119 0 0 -156 231 0 0 -58 0 0zm-112 272l0 0c33,0 58,10 74,30 16,19 24,44 24,74 0,30 -8,56 -24,76 -17,21 -41,32 -74,32l-119 0 0 -212 119 0 0 0z"/>
  </g>
  <g id="_2926908491568">
   <polygon id="polygon3408" class="fil1" points="3258,668 3059,668 3059,493 3288,493 3288,435 2993,435 2993,976 3292,976 3292,919 3059,919 3059,725 3258,725 "/>
  </g>
  <g id="_2926908491024">
   <path id="path3411" class="fil1" d="M3430 435l0 255c0,82 -7,141 -21,176 -13,35 -35,53 -66,53l-14 0 0 57 18 0c53,0 91,-23 114,-69 23,-45 34,-118 34,-217l1 -197 175 0 0 483 66 0 0 -541 -307 0z"/>
  </g>
  <g id="_2926908491248">
   <path id="path3414" class="fil1" d="M448 433l-96 0 0 1c-55,3 -99,23 -133,58 -34,36 -50,82 -50,139 0,55 16,100 50,135 34,35 78,54 133,57l0 145 96 0 0 -145c54,-4 98,-23 132,-58 33,-35 50,-80 50,-135 0,-56 -17,-102 -50,-137 -34,-36 -78,-56 -132,-59l0 -1zm-162 122l0 0c16,-19 37,-29 64,-31l2 1 0 207 -2 1c-27,-2 -48,-11 -64,-30 -16,-17 -23,-41 -23,-72 0,-32 7,-57 23,-76l0 0zm227 148l0 0c-16,18 -37,28 -63,30l-2 -1 0 -207 2 -1c26,2 47,12 63,31 15,19 23,44 23,75 0,31 -8,55 -23,73l0 0z"/>
  </g>
  <g id="_2926908491824">
   <path id="path3417" class="fil1" d="M1075 653c0,-66 -19,-120 -56,-163 -37,-43 -85,-64 -145,-64 -59,0 -106,21 -143,64 -37,43 -55,97 -55,163l0 96c0,66 18,120 55,163 37,42 85,64 144,64 59,0 108,-22 144,-64 38,-43 56,-97 56,-163l0 -96zm-96 96l0 0c0,42 -9,77 -27,104 -19,26 -44,40 -77,40 -33,0 -58,-14 -76,-40 -18,-27 -27,-62 -27,-104l0 -97c0,-42 9,-76 27,-103 18,-26 43,-39 75,-39 33,0 59,13 77,39 19,27 28,61 28,103l0 97z"/>
  </g>
  <g id="_2926908490736">
   <polygon id="polygon3420" class="fil1" points="1475,433 1108,433 1108,516 1243,516 1243,968 1338,968 1338,516 1475,516 "/>
  </g>
  <g id="_2926908490640">
   <path id="path3423" class="fil1" d="M1905 653c0,-66 -18,-120 -55,-163 -38,-43 -86,-64 -145,-64 -59,0 -107,21 -144,64 -36,43 -55,97 -55,163l0 96c0,66 19,120 55,163 37,42 85,64 144,64 60,0 108,-22 145,-64 37,-43 55,-97 55,-163l0 -96zm-95 96l0 0c0,42 -9,77 -28,104 -18,26 -44,40 -77,40 -32,0 -58,-14 -76,-40 -18,-27 -27,-62 -27,-104l0 -97c0,-42 9,-76 27,-103 18,-26 43,-39 76,-39 32,0 58,13 77,39 18,27 28,61 28,103l0 97z"/>
  </g>
 </g>
</svg>
