<?xml version="1.0" encoding="UTF-8"?>
<!DOCTYPE svg PUBLIC "-//W3C//DTD SVG 1.1//EN" "http://www.w3.org/Graphics/SVG/1.1/DTD/svg11.dtd">
<!-- Creator: CorelDRAW X7 -->
<svg xmlns="http://www.w3.org/2000/svg" xml:space="preserve" width="16.9332mm" height="16.9332mm" version="1.1" style="shape-rendering:geometricPrecision; text-rendering:geometricPrecision; image-rendering:optimizeQuality; fill-rule:evenodd; clip-rule:evenodd"
viewBox="0 0 1693 1693"
 xmlns:xlink="http://www.w3.org/1999/xlink"
 enable-background="new 0 0 48 48">
 <defs>
  <style type="text/css">
   <![CDATA[
    .fil3 {fill:#3EC6FF}
    .fil2 {fill:#868686}
    .fil1 {fill:#DDDDDD}
    .fil0 {fill:white}
   ]]>
  </style>
 </defs>
 <g id="Слой_x0020_1">
  <metadata id="CorelCorpID_0Corel-Layer"/>
  <polygon class="fil0" points="10,8 1690,8 1690,1688 10,1688 "/>
  <g id="_2980530669280">
   <path class="fil1" d="M688 611l778 0c15,0 27,11 27,25 0,13 -12,25 -27,25l-778 0c-15,0 -26,-12 -26,-25 0,-14 11,-25 26,-25z"/>
  </g>
  <g id="_2980530668448">
   <path class="fil1" d="M688 690l778 0c15,0 27,11 27,25 0,14 -12,25 -27,25l-778 0c-15,0 -26,-11 -26,-25 0,-14 11,-25 26,-25z"/>
  </g>
  <g id="_2980530668224">
   <path class="fil1" d="M688 769l778 0c15,0 27,11 27,25 0,14 -12,25 -27,25l-778 0c-15,0 -26,-11 -26,-25 0,-14 11,-25 26,-25z"/>
  </g>
  <g id="_2980530682720">
   <path class="fil1" d="M688 848l778 0c15,0 27,11 27,25 0,14 -12,25 -27,25l-778 0c-15,0 -26,-11 -26,-25 0,-14 11,-25 26,-25z"/>
  </g>
  <g id="_2980530682240">
   <path class="fil1" d="M232 927l1236 0c14,0 25,11 25,25 0,14 -11,25 -25,25l-1236 0c-13,0 -24,-11 -24,-25 0,-14 11,-25 24,-25z"/>
  </g>
  <g id="_2980530682368">
   <path class="fil1" d="M232 1006l1236 0c14,0 25,12 25,25 0,14 -11,25 -25,25l-1236 0c-13,0 -24,-11 -24,-25 0,-13 11,-25 24,-25z"/>
  </g>
  <g id="_2980530683040">
   <path class="fil1" d="M232 1086l1236 0c14,0 25,11 25,24 0,14 -11,25 -25,25l-1236 0c-13,0 -24,-11 -24,-25 0,-13 11,-24 24,-24z"/>
  </g>
  <g id="_2980530682848">
   <path class="fil1" d="M232 1165l1236 0c14,0 25,11 25,24 0,14 -11,25 -25,25l-1236 0c-13,0 -24,-11 -24,-25 0,-13 11,-24 24,-24z"/>
  </g>
  <g id="_2980530681728">
   <path class="fil2" d="M704 473l747 0c23,0 42,17 42,39 0,22 -19,40 -42,40l-747 0c-24,0 -42,-18 -42,-40 0,-22 18,-39 42,-39z"/>
  </g>
  <g id="_2980530681120">
   <path class="fil3" d="M410 473c112,0 203,90 203,202 0,112 -91,203 -203,203 -112,0 -202,-91 -202,-203 0,-112 90,-202 202,-202z"/>
  </g>
  <g id="_2980530681376">
   <path class="fil0" d="M497 753l-173 0c-11,0 -19,-8 -19,-18l0 -119c0,-10 8,-18 19,-18l173 0c10,0 18,8 18,18l0 119c0,10 -8,18 -18,18zm9 -137c0,-5 -4,-9 -9,-9l-173 0c-6,0 -10,4 -10,9l0 119c0,5 4,9 10,9l173 0c5,0 9,-4 9,-9l0 -119zm-17 108l-28 -29 -17 17 15 15c2,2 2,5 0,6 -1,2 -4,2 -6,0l-66 -65 -56 56c-2,2 -4,2 -6,0 -2,-1 -2,-4 0,-6l59 -59c0,0 0,0 0,-1 1,0 2,-1 3,-1 2,0 3,1 4,1 0,1 0,1 0,1l47 47 19 -20c0,0 0,0 0,0 1,-1 2,-1 4,-1 1,0 2,0 3,1 0,0 0,0 0,0l32 32c2,2 2,5 0,6 -2,2 -5,2 -7,0zm-56 -71c-10,0 -18,-9 -18,-19 0,-10 8,-18 18,-18 10,0 18,8 18,18 0,10 -8,19 -18,19zm0 -28c-5,0 -9,4 -9,9 0,5 4,9 9,9 5,0 9,-4 9,-9 0,-5 -4,-9 -9,-9z"/>
  </g>
 </g>
</svg>
