<?xml version="1.0" encoding="UTF-8"?>
<!DOCTYPE svg PUBLIC "-//W3C//DTD SVG 1.1//EN" "http://www.w3.org/Graphics/SVG/1.1/DTD/svg11.dtd">
<!-- Creator: CorelDRAW X7 -->
<svg xmlns="http://www.w3.org/2000/svg" xml:space="preserve" width="16.9332mm" height="16.9332mm" version="1.1" style="shape-rendering:geometricPrecision; text-rendering:geometricPrecision; image-rendering:optimizeQuality; fill-rule:evenodd; clip-rule:evenodd"
viewBox="0 0 1693 1693"
 xmlns:xlink="http://www.w3.org/1999/xlink"
 enable-background="new 0 0 48 48">
 <defs>
  <style type="text/css">
   <![CDATA[
    .fil3 {fill:#3EC6FF}
    .fil2 {fill:#868686}
    .fil1 {fill:#DDDDDD}
    .fil0 {fill:white}
   ]]>
  </style>
 </defs>
 <g id="Слой_x0020_1">
  <metadata id="CorelCorpID_0Corel-Layer"/>
  <g id="_2980527846400">
   <polygon class="fil0" points="24,8 1701,8 1701,1685 24,1685 "/>
  </g>
  <g id="_2980527845088">
   <path class="fil1" d="M143 1004l365 0c11,0 19,9 19,20 0,11 -8,20 -19,20l-365 0c-11,0 -20,-9 -20,-20 0,-11 9,-20 20,-20z"/>
  </g>
  <g id="_2980527846016">
   <path class="fil1" d="M162 1073l326 0c11,0 20,9 20,20 0,11 -9,20 -20,20l-326 0c-11,0 -19,-9 -19,-20 0,-11 8,-20 19,-20z"/>
  </g>
  <g id="_2980527846880">
   <path class="fil1" d="M182 1142l286 0c11,0 20,9 20,20 0,11 -9,20 -20,20l-286 0c-11,0 -20,-9 -20,-20 0,-11 9,-20 20,-20z"/>
  </g>
  <g id="_2980533309856">
   <path class="fil2" d="M162 876l326 0c22,0 39,18 39,39 0,22 -17,40 -39,40l-326 0c-21,0 -39,-18 -39,-40 0,-21 18,-39 39,-39z"/>
  </g>
  <g id="_2980533310592">
   <path class="fil1" d="M675 1004l365 0c11,0 20,9 20,20 0,11 -9,20 -20,20l-365 0c-11,0 -19,-9 -19,-20 0,-11 8,-20 19,-20z"/>
  </g>
  <g id="_2980533311360">
   <path class="fil1" d="M695 1073l326 0c10,0 19,9 19,20 0,11 -9,20 -19,20l-326 0c-11,0 -20,-9 -20,-20 0,-11 9,-20 20,-20z"/>
  </g>
  <g id="_2980533310176">
   <path class="fil1" d="M715 1142l286 0c11,0 20,9 20,20 0,11 -9,20 -20,20l-286 0c-11,0 -20,-9 -20,-20 0,-11 9,-20 20,-20z"/>
  </g>
  <g id="_2980533309952">
   <path class="fil2" d="M695 876l326 0c21,0 39,18 39,39 0,22 -18,40 -39,40l-326 0c-22,0 -39,-18 -39,-40 0,-21 17,-39 39,-39z"/>
  </g>
  <g id="_2980527838544">
   <path class="fil1" d="M1218 1004l365 0c11,0 19,9 19,20 0,11 -8,20 -19,20l-365 0c-11,0 -20,-9 -20,-20 0,-11 9,-20 20,-20z"/>
  </g>
  <g id="_2980527839696">
   <path class="fil1" d="M1238 1073l325 0c11,0 20,9 20,20 0,11 -9,20 -20,20l-325 0c-11,0 -20,-9 -20,-20 0,-11 9,-20 20,-20z"/>
  </g>
  <g id="_2980527840304">
   <path class="fil1" d="M1257 1142l286 0c11,0 20,9 20,20 0,11 -9,20 -20,20l-286 0c-11,0 -19,-9 -19,-20 0,-11 8,-20 19,-20z"/>
  </g>
  <g id="_2980527838576">
   <path class="fil2" d="M1238 876l325 0c22,0 39,18 39,39 0,22 -17,40 -39,40l-325 0c-22,0 -40,-18 -40,-40 0,-21 18,-39 40,-39z"/>
  </g>
  <g id="_2980527840112">
   <path class="fil3" d="M325 393c112,0 202,90 202,202 0,112 -90,202 -202,202 -112,0 -202,-90 -202,-202 0,-112 90,-202 202,-202z"/>
  </g>
  <g id="_2980440186592">
   <path class="fil3" d="M858 393c111,0 202,90 202,202 0,112 -91,202 -202,202 -112,0 -202,-90 -202,-202 0,-112 90,-202 202,-202z"/>
  </g>
  <g id="_2980536123264">
   <path class="fil3" d="M1400 393c112,0 202,90 202,202 0,112 -90,202 -202,202 -111,0 -202,-90 -202,-202 0,-112 91,-202 202,-202z"/>
  </g>
  <g id="_2980530138992">
   <path class="fil0" d="M424 683l-198 0c-11,0 -20,-9 -20,-21l0 -135c0,-11 9,-20 20,-20l198 0c11,0 21,9 21,20l0 135c0,12 -10,21 -21,21zm10 -156c0,-5 -4,-10 -10,-10l-198 0c-5,0 -10,5 -10,10l0 135c0,6 5,11 10,11l198 0c6,0 10,-5 10,-11l0 -135zm-19 124l-33 -33 -19 18 18 18c2,2 2,5 0,7 -2,2 -5,2 -7,0l-75 -75 -64 65c-2,2 -5,2 -7,0 -2,-2 -2,-6 0,-8l67 -67c0,0 0,0 0,0 1,-1 3,-2 4,-2 1,0 3,1 4,2 0,0 0,0 0,0l53 53 22 -22c0,0 0,0 1,0 1,-1 2,-2 3,-2 2,0 3,1 4,2 0,0 0,0 1,0l35 36c2,2 2,6 0,8 -2,2 -5,2 -7,0zm-64 -82c-11,0 -21,-9 -21,-21 0,-11 10,-21 21,-21 12,0 21,10 21,21 0,12 -9,21 -21,21zm0 -31c-6,0 -10,4 -10,10 0,6 4,10 10,10 6,0 11,-4 11,-10 0,-6 -5,-10 -11,-10z"/>
  </g>
  <g id="_2980476928944">
   <path class="fil0" d="M1499 684l-197 0c-12,0 -21,-9 -21,-20l0 -136c0,-11 9,-20 21,-20l197 0c11,0 21,9 21,20l0 136c0,11 -10,20 -21,20zm10 -156c0,-5 -4,-10 -10,-10l-197 0c-6,0 -11,5 -11,10l0 136c0,5 5,10 11,10l197 0c6,0 10,-5 10,-10l0 -136zm-19 124l-33 -33 -18 19 17 17c2,2 2,5 0,7 -2,2 -5,2 -7,0l-75 -74 -64 64c-2,2 -5,2 -7,0 -2,-2 -2,-6 0,-7l67 -68c0,0 0,0 1,0 1,-1 2,-2 3,-2 2,0 3,1 4,2 0,0 0,0 0,0l53 53 22 -21c0,-1 0,-1 1,-1 1,-1 2,-2 3,-2 2,0 3,1 4,2 0,0 0,0 1,1l36 36c2,1 2,5 0,7 -2,2 -6,2 -8,0zm-64 -82c-11,0 -21,-9 -21,-21 0,-11 10,-21 21,-21 12,0 21,10 21,21 0,12 -9,21 -21,21zm0 -31c-5,0 -10,4 -10,10 0,6 5,11 10,11 6,0 11,-5 11,-11 0,-6 -5,-10 -11,-10z"/>
  </g>
  <g id="_2980527876784">
   <path class="fil0" d="M957 683l-198 0c-11,0 -21,-9 -21,-21l0 -135c0,-11 10,-20 21,-20l198 0c11,0 20,9 20,20l0 135c0,12 -9,21 -20,21zm10 -156c0,-5 -5,-10 -10,-10l-198 0c-6,0 -10,5 -10,10l0 135c0,6 4,11 10,11l198 0c5,0 10,-5 10,-11l0 -135zm-19 124l-33 -33 -19 18 17 18c2,2 2,5 0,7 -2,2 -5,2 -7,0l-74 -75 -64 65c-2,2 -6,2 -8,0 -1,-2 -1,-6 0,-8l68 -67c0,0 0,0 0,0 1,-1 2,-2 4,-2 1,0 2,1 3,2 1,0 1,0 1,0l53 53 22 -22c0,0 0,0 0,0 1,-1 3,-2 4,-2 1,0 3,1 4,2 0,0 0,0 0,0l36 36c2,2 2,6 0,8 -2,2 -5,2 -7,0zm-64 -82c-12,0 -21,-9 -21,-21 0,-11 9,-21 21,-21 11,0 21,10 21,21 0,12 -10,21 -21,21zm0 -31c-6,0 -11,4 -11,10 0,6 5,10 11,10 5,0 10,-4 10,-10 0,-6 -5,-10 -10,-10z"/>
  </g>
 </g>
</svg>
