<?xml version="1.0" encoding="UTF-8"?>
<!DOCTYPE svg PUBLIC "-//W3C//DTD SVG 1.1//EN" "http://www.w3.org/Graphics/SVG/1.1/DTD/svg11.dtd">
<!-- Creator: CorelDRAW X7 -->
<svg xmlns="http://www.w3.org/2000/svg" xml:space="preserve" width="16.9332mm" height="16.9332mm" version="1.1" style="shape-rendering:geometricPrecision; text-rendering:geometricPrecision; image-rendering:optimizeQuality; fill-rule:evenodd; clip-rule:evenodd"
viewBox="0 0 1693 1693"
 xmlns:xlink="http://www.w3.org/1999/xlink">
 <defs>
  <style type="text/css">
   <![CDATA[
    .fil0 {fill:none}
    .fil1 {fill:#DDDDDD}
   ]]>
  </style>
 </defs>
 <g id="Слой_x0020_1">
  <metadata id="CorelCorpID_0Corel-Layer"/>
  <g id="_2743592491952">
   <g>
    <polygon class="fil0" points="-1,-4 1690,-4 1690,1687 -1,1687 "/>
   </g>
   <g>
    <path class="fil1" d="M228 434l1243 0c16,0 30,13 30,30 0,16 -14,30 -30,30l-1243 0c-17,0 -30,-14 -30,-30 0,-17 13,-30 30,-30z"/>
   </g>
   <g>
    <path class="fil1" d="M228 524l1243 0c16,0 30,13 30,29 0,17 -14,30 -30,30l-1243 0c-17,0 -30,-13 -30,-30 0,-16 13,-29 30,-29z"/>
   </g>
   <g>
    <path class="fil1" d="M228 613l1243 0c16,0 30,13 30,30 0,16 -14,30 -30,30l-1243 0c-17,0 -30,-14 -30,-30 0,-17 13,-30 30,-30z"/>
   </g>
   <g>
    <path class="fil1" d="M228 703l1243 0c16,0 30,13 30,29 0,17 -14,30 -30,30l-1243 0c-17,0 -30,-13 -30,-30 0,-16 13,-29 30,-29z"/>
   </g>
   <g>
    <path class="fil1" d="M228 792l1243 0c16,0 30,13 30,30 0,16 -14,30 -30,30l-1243 0c-17,0 -30,-14 -30,-30 0,-17 13,-30 30,-30z"/>
   </g>
   <g>
    <path class="fil1" d="M228 882l1243 0c16,0 30,13 30,29 0,17 -14,30 -30,30l-1243 0c-17,0 -30,-13 -30,-30 0,-16 13,-29 30,-29z"/>
   </g>
   <g>
    <path class="fil1" d="M228 971l1243 0c16,0 30,13 30,30 0,16 -14,30 -30,30l-1243 0c-17,0 -30,-14 -30,-30 0,-17 13,-30 30,-30z"/>
   </g>
  </g>
 </g>
</svg>
