<?xml version="1.0" encoding="UTF-8"?>
<!DOCTYPE svg PUBLIC "-//W3C//DTD SVG 1.1//EN" "http://www.w3.org/Graphics/SVG/1.1/DTD/svg11.dtd">
<!-- Creator: CorelDRAW X7 -->
<svg xmlns="http://www.w3.org/2000/svg" xml:space="preserve" width="16.9332mm" height="16.9332mm" version="1.1" style="shape-rendering:geometricPrecision; text-rendering:geometricPrecision; image-rendering:optimizeQuality; fill-rule:evenodd; clip-rule:evenodd"
viewBox="0 0 1693 1693"
 xmlns:xlink="http://www.w3.org/1999/xlink">
 <defs>
  <style type="text/css">
   <![CDATA[
    .fil0 {fill:none}
    .fil3 {fill:#3EC6FF}
    .fil2 {fill:#868686}
    .fil1 {fill:#DDDDDD}
    .fil4 {fill:white}
   ]]>
  </style>
 </defs>
 <g id="Слой_x0020_1">
  <metadata id="CorelCorpID_0Corel-Layer"/>
  <g id="_2978638670400">
   <polygon class="fil0" points="1,3 1689,3 1689,1690 1,1690 "/>
  </g>
  <g id="_2978638667872">
   <path class="fil1" d="M617 325l853 0c11,0 20,9 20,20 0,11 -9,19 -20,19l-853 0c-11,0 -20,-8 -20,-19 0,-11 9,-20 20,-20z"/>
  </g>
  <g id="_2978638668544">
   <path class="fil1" d="M617 394l853 0c11,0 20,9 20,20 0,11 -9,20 -20,20l-853 0c-11,0 -20,-9 -20,-20 0,-11 9,-20 20,-20z"/>
  </g>
  <g id="_2978638667616">
   <path class="fil2" d="M637 196l813 0c22,0 40,18 40,39 0,22 -18,40 -40,40l-813 0c-22,0 -40,-18 -40,-40 0,-21 18,-39 40,-39z"/>
  </g>
  <g id="_2978638667808">
   <path class="fil3" d="M349 166c82,0 149,67 149,149 0,82 -67,149 -149,149 -83,0 -149,-67 -149,-149 0,-82 66,-149 149,-149z"/>
  </g>
  <g id="_2978638667840">
   <path class="fil1" d="M617 702l853 0c11,0 20,9 20,20 0,11 -9,20 -20,20l-853 0c-11,0 -20,-9 -20,-20 0,-11 9,-20 20,-20z"/>
  </g>
  <g id="_2978638668416">
   <path class="fil1" d="M617 771l853 0c11,0 20,9 20,20 0,11 -9,20 -20,20l-853 0c-11,0 -20,-9 -20,-20 0,-11 9,-20 20,-20z"/>
  </g>
  <g id="_2978638664672">
   <path class="fil2" d="M637 573l813 0c22,0 40,18 40,40 0,22 -18,39 -40,39l-813 0c-22,0 -40,-17 -40,-39 0,-22 18,-40 40,-40z"/>
  </g>
  <g id="_2978638666400">
   <path class="fil3" d="M349 543c82,0 149,67 149,149 0,82 -67,149 -149,149 -83,0 -149,-67 -149,-149 0,-82 66,-149 149,-149z"/>
  </g>
  <g id="_2978638665280">
   <path class="fil1" d="M617 1079l853 0c11,0 20,9 20,20 0,11 -9,20 -20,20l-853 0c-11,0 -20,-9 -20,-20 0,-11 9,-20 20,-20z"/>
  </g>
  <g id="_2978638665600">
   <path class="fil1" d="M617 1149l853 0c11,0 20,8 20,19 0,11 -9,20 -20,20l-853 0c-11,0 -20,-9 -20,-20 0,-11 9,-19 20,-19z"/>
  </g>
  <g id="_2978638665696">
   <path class="fil2" d="M637 950l813 0c22,0 40,18 40,40 0,22 -18,39 -40,39l-813 0c-22,0 -40,-17 -40,-39 0,-22 18,-40 40,-40z"/>
  </g>
  <g id="_2978638664352">
   <path class="fil3" d="M349 920c82,0 149,67 149,149 0,82 -67,149 -149,149 -83,0 -149,-67 -149,-149 0,-82 66,-149 149,-149z"/>
  </g>
  <g id="_2978638662944">
   <g id="icomoon-ignore">
   </g>
   <path class="fil4" d="M344 326l0 -3c0,-3 1,-3 2,-5 1,-2 2,-4 4,-6 1,-1 3,-3 7,-6 3,-2 5,-4 6,-6 1,-2 2,-3 2,-5 0,-3 -2,-6 -5,-9 -3,-2 -6,-5 -10,-5 -5,0 -8,3 -11,5 -3,2 -4,6 -5,11l-10 -2c1,-6 3,-11 8,-14 4,-4 10,-8 17,-8 8,0 14,4 19,8 4,4 7,8 7,13 0,3 -1,6 -3,9 -1,2 -4,5 -9,9 -3,2 -5,4 -6,5 -1,2 -2,3 -3,4 0,2 0,1 0,5l-10 0 0 0zm-1 25l0 -13 13 0 0 13 -13 0z"/>
   <path class="fil4" d="M349 228c-48,0 -87,39 -87,87 0,48 39,88 87,88 49,0 88,-40 88,-88 0,-48 -39,-87 -88,-87zm0 164c-42,0 -77,-34 -77,-77 0,-42 35,-77 77,-77 43,0 78,35 78,77 0,43 -35,77 -78,77z"/>
  </g>
  <g id="_2978638660576">
   <g id="icomoon-ignore_0">
   </g>
   <path class="fil4" d="M344 708l0 -3c0,-3 0,-3 1,-6 1,-1 3,-3 4,-5 2,-1 4,-3 7,-6 4,-3 6,-5 7,-6 1,-2 1,-3 1,-5 0,-4 -1,-6 -4,-9 -3,-2 -7,-5 -11,-5 -4,0 -8,2 -10,5 -3,2 -5,6 -6,10l-10 -1c1,-6 4,-11 8,-15 5,-3 11,-7 18,-7 8,0 14,4 18,8 5,4 7,8 7,13 0,3 0,6 -2,9 -2,2 -5,5 -10,9 -3,2 -5,4 -6,5 -1,1 -1,3 -2,4 0,2 -1,1 -1,5l-9 0 0 0zm-2 25l0 -13 13 0 0 13 -13 0z"/>
   <path class="fil4" d="M349 610c-48,0 -87,39 -87,87 0,48 39,87 87,87 48,0 87,-39 87,-87 0,-48 -39,-87 -87,-87zm0 164c-43,0 -77,-34 -77,-77 0,-43 34,-77 77,-77 43,0 77,34 77,77 0,43 -34,77 -77,77z"/>
  </g>
  <g id="_2978638661408">
   <g id="icomoon-ignore_1">
   </g>
   <path class="fil4" d="M345 1080l0 -2c0,-4 0,-4 2,-6 0,-2 2,-4 3,-5 2,-2 4,-4 7,-6 4,-3 6,-5 7,-7 1,-1 1,-3 1,-5 0,-3 -1,-6 -4,-8 -3,-3 -7,-5 -11,-5 -4,0 -7,2 -10,4 -3,3 -5,6 -6,11l-10 -1c1,-7 4,-12 8,-15 5,-3 11,-8 18,-8 8,0 14,5 19,8 4,4 6,9 6,14 0,3 0,6 -2,8 -2,3 -5,6 -9,9 -4,3 -6,5 -7,6 -1,1 -1,2 -2,4 0,1 -1,1 -1,4l-9 0 0 0zm-2 26l0 -14 14 0 0 14 -14 0z"/>
   <path class="fil4" d="M350 982c-48,0 -87,39 -87,88 0,48 39,87 87,87 48,0 87,-39 87,-87 0,-49 -39,-88 -87,-88zm0 165c-42,0 -77,-35 -77,-77 0,-43 35,-78 77,-78 43,0 77,35 77,78 0,42 -34,77 -77,77z"/>
  </g>
 </g>
</svg>
