<?xml version="1.0" encoding="utf-8"?>
<!-- Generator: Adobe Illustrator 18.0.0, SVG Export Plug-In . SVG Version: 6.00 Build 0)  -->
<!DOCTYPE svg PUBLIC "-//W3C//DTD SVG 1.1//EN" "http://www.w3.org/Graphics/SVG/1.1/DTD/svg11.dtd">
<svg version="1.1" id="Слой_1" xmlns:ev="http://www.w3.org/2001/xml-events"
	 xmlns="http://www.w3.org/2000/svg" xmlns:xlink="http://www.w3.org/1999/xlink" x="0px" y="0px" viewBox="0 0 255.1 161.6"
	 enable-background="new 0 0 255.1 161.6" xml:space="preserve">
<g>
	<g>
		<rect id="p" x="66.4" y="19.6" fill="#FFFFFF" width="4.9" height="4.9"/>
	</g>
	<g>
		<rect id="p_1_" x="66.4" y="24.5" fill="#FFFFFF" width="4.9" height="4.9"/>
	</g>
	<g>
		<rect id="p_2_" x="66.4" y="29.4" fill="#FFFFFF" width="4.9" height="4.9"/>
	</g>
	<g>
		<rect id="p_3_" x="66.4" y="34.3" fill="#FFFFFF" width="4.9" height="4.9"/>
	</g>
	<g>
		<rect id="p_4_" x="66.4" y="39.2" fill="#FFFFFF" width="4.9" height="4.9"/>
	</g>
	<g>
		<rect id="p_5_" x="66.4" y="44.1" fill="#FFFFFF" width="4.9" height="4.9"/>
	</g>
	<g>
		<rect id="p_6_" x="66.4" y="49" fill="#FFFFFF" width="4.9" height="4.9"/>
	</g>
	<g>
		<rect id="p_7_" x="66.4" y="58.8" fill="#FFFFFF" width="4.9" height="4.9"/>
	</g>
	<g>
		<rect id="p_8_" x="66.4" y="63.6" fill="#FFFFFF" width="4.9" height="4.9"/>
	</g>
	<g>
		<rect id="p_9_" x="66.4" y="68.5" fill="#FFFFFF" width="4.9" height="4.9"/>
	</g>
	<g>
		<rect id="p_10_" x="66.4" y="73.4" fill="#FFFFFF" width="4.9" height="4.9"/>
	</g>
	<g>
		<rect id="p_11_" x="66.4" y="83.2" fill="#FFFFFF" width="4.9" height="4.9"/>
	</g>
	<g>
		<rect id="p_12_" x="66.4" y="88.1" fill="#FFFFFF" width="4.9" height="4.9"/>
	</g>
	<g>
		<rect id="p_13_" x="66.4" y="97.9" fill="#FFFFFF" width="4.9" height="4.9"/>
	</g>
	<g>
		<rect id="p_14_" x="66.4" y="107.7" fill="#FFFFFF" width="4.9" height="4.9"/>
	</g>
	<g>
		<rect id="p_15_" x="66.4" y="112.6" fill="#FFFFFF" width="4.9" height="4.9"/>
	</g>
	<g>
		<rect id="p_16_" x="66.4" y="117.5" fill="#FFFFFF" width="4.9" height="4.9"/>
	</g>
	<g>
		<rect id="p_17_" x="66.4" y="122.4" fill="#FFFFFF" width="4.9" height="4.9"/>
	</g>
	<g>
		<rect id="p_18_" x="66.4" y="127.3" fill="#FFFFFF" width="4.9" height="4.9"/>
	</g>
	<g>
		<rect id="p_19_" x="66.4" y="132.2" fill="#FFFFFF" width="4.9" height="4.9"/>
	</g>
	<g>
		<rect id="p_20_" x="66.4" y="137.1" fill="#FFFFFF" width="4.9" height="4.9"/>
	</g>
	<g>
		<rect id="p_21_" x="71.3" y="19.6" fill="#FFFFFF" width="4.9" height="4.9"/>
	</g>
	<g>
		<rect id="p_22_" x="71.3" y="49" fill="#FFFFFF" width="4.9" height="4.9"/>
	</g>
	<g>
		<rect id="p_23_" x="71.3" y="63.6" fill="#FFFFFF" width="4.9" height="4.9"/>
	</g>
	<g>
		<rect id="p_24_" x="71.3" y="93" fill="#FFFFFF" width="4.9" height="4.9"/>
	</g>
	<g>
		<rect id="p_25_" x="71.3" y="97.9" fill="#FFFFFF" width="4.9" height="4.9"/>
	</g>
	<g>
		<rect id="p_26_" x="71.3" y="107.7" fill="#FFFFFF" width="4.9" height="4.9"/>
	</g>
	<g>
		<rect id="p_27_" x="71.3" y="137.1" fill="#FFFFFF" width="4.9" height="4.9"/>
	</g>
	<g>
		<rect id="p_28_" x="76.2" y="19.6" fill="#FFFFFF" width="4.9" height="4.9"/>
	</g>
	<g>
		<rect id="p_29_" x="76.2" y="29.4" fill="#FFFFFF" width="4.9" height="4.9"/>
	</g>
	<g>
		<rect id="p_30_" x="76.2" y="34.3" fill="#FFFFFF" width="4.9" height="4.9"/>
	</g>
	<g>
		<rect id="p_31_" x="76.2" y="39.2" fill="#FFFFFF" width="4.9" height="4.9"/>
	</g>
	<g>
		<rect id="p_32_" x="76.2" y="49" fill="#FFFFFF" width="4.9" height="4.9"/>
	</g>
	<g>
		<rect id="p_33_" x="76.2" y="58.8" fill="#FFFFFF" width="4.9" height="4.9"/>
	</g>
	<g>
		<rect id="p_34_" x="76.2" y="63.6" fill="#FFFFFF" width="4.9" height="4.9"/>
	</g>
	<g>
		<rect id="p_35_" x="76.2" y="73.4" fill="#FFFFFF" width="4.9" height="4.9"/>
	</g>
	<g>
		<rect id="p_36_" x="76.2" y="78.3" fill="#FFFFFF" width="4.9" height="4.9"/>
	</g>
	<g>
		<rect id="p_37_" x="76.2" y="93" fill="#FFFFFF" width="4.9" height="4.9"/>
	</g>
	<g>
		<rect id="p_38_" x="76.2" y="97.9" fill="#FFFFFF" width="4.9" height="4.9"/>
	</g>
	<g>
		<rect id="p_39_" x="76.2" y="107.7" fill="#FFFFFF" width="4.9" height="4.9"/>
	</g>
	<g>
		<rect id="p_40_" x="76.2" y="117.5" fill="#FFFFFF" width="4.9" height="4.9"/>
	</g>
	<g>
		<rect id="p_41_" x="76.2" y="122.4" fill="#FFFFFF" width="4.9" height="4.9"/>
	</g>
	<g>
		<rect id="p_42_" x="76.2" y="127.3" fill="#FFFFFF" width="4.9" height="4.9"/>
	</g>
	<g>
		<rect id="p_43_" x="76.2" y="137.1" fill="#FFFFFF" width="4.9" height="4.9"/>
	</g>
	<g>
		<rect id="p_44_" x="81" y="19.6" fill="#FFFFFF" width="4.9" height="4.9"/>
	</g>
	<g>
		<rect id="p_45_" x="81" y="29.4" fill="#FFFFFF" width="4.9" height="4.9"/>
	</g>
	<g>
		<rect id="p_46_" x="81" y="34.3" fill="#FFFFFF" width="4.9" height="4.9"/>
	</g>
	<g>
		<rect id="p_47_" x="81" y="39.2" fill="#FFFFFF" width="4.9" height="4.9"/>
	</g>
	<g>
		<rect id="p_48_" x="81" y="49" fill="#FFFFFF" width="4.9" height="4.9"/>
	</g>
	<g>
		<rect id="p_49_" x="81" y="58.8" fill="#FFFFFF" width="4.9" height="4.9"/>
	</g>
	<g>
		<rect id="p_50_" x="81" y="63.6" fill="#FFFFFF" width="4.9" height="4.9"/>
	</g>
	<g>
		<rect id="p_51_" x="81" y="78.3" fill="#FFFFFF" width="4.9" height="4.9"/>
	</g>
	<g>
		<rect id="p_52_" x="81" y="93" fill="#FFFFFF" width="4.9" height="4.9"/>
	</g>
	<g>
		<rect id="p_53_" x="81" y="107.7" fill="#FFFFFF" width="4.9" height="4.9"/>
	</g>
	<g>
		<rect id="p_54_" x="81" y="117.5" fill="#FFFFFF" width="4.9" height="4.9"/>
	</g>
	<g>
		<rect id="p_55_" x="81" y="122.4" fill="#FFFFFF" width="4.9" height="4.9"/>
	</g>
	<g>
		<rect id="p_56_" x="81" y="127.3" fill="#FFFFFF" width="4.9" height="4.9"/>
	</g>
	<g>
		<rect id="p_57_" x="81" y="137.1" fill="#FFFFFF" width="4.9" height="4.9"/>
	</g>
	<g>
		<rect id="p_58_" x="85.9" y="19.6" fill="#FFFFFF" width="4.9" height="4.9"/>
	</g>
	<g>
		<rect id="p_59_" x="85.9" y="29.4" fill="#FFFFFF" width="4.9" height="4.9"/>
	</g>
	<g>
		<rect id="p_60_" x="85.9" y="34.3" fill="#FFFFFF" width="4.9" height="4.9"/>
	</g>
	<g>
		<rect id="p_61_" x="85.9" y="39.2" fill="#FFFFFF" width="4.9" height="4.9"/>
	</g>
	<g>
		<rect id="p_62_" x="85.9" y="49" fill="#FFFFFF" width="4.9" height="4.9"/>
	</g>
	<g>
		<rect id="p_63_" x="85.9" y="63.6" fill="#FFFFFF" width="4.9" height="4.9"/>
	</g>
	<g>
		<rect id="p_64_" x="85.9" y="73.4" fill="#FFFFFF" width="4.9" height="4.9"/>
	</g>
	<g>
		<rect id="p_65_" x="85.9" y="83.2" fill="#FFFFFF" width="4.9" height="4.9"/>
	</g>
	<g>
		<rect id="p_66_" x="85.9" y="97.9" fill="#FFFFFF" width="4.9" height="4.9"/>
	</g>
	<g>
		<rect id="p_67_" x="85.9" y="107.7" fill="#FFFFFF" width="4.9" height="4.9"/>
	</g>
	<g>
		<rect id="p_68_" x="85.9" y="117.5" fill="#FFFFFF" width="4.9" height="4.9"/>
	</g>
	<g>
		<rect id="p_69_" x="85.9" y="122.4" fill="#FFFFFF" width="4.9" height="4.9"/>
	</g>
	<g>
		<rect id="p_70_" x="85.9" y="127.3" fill="#FFFFFF" width="4.9" height="4.9"/>
	</g>
	<g>
		<rect id="p_71_" x="85.9" y="137.1" fill="#FFFFFF" width="4.9" height="4.9"/>
	</g>
	<g>
		<rect id="p_72_" x="90.8" y="19.6" fill="#FFFFFF" width="4.9" height="4.9"/>
	</g>
	<g>
		<rect id="p_73_" x="90.8" y="49" fill="#FFFFFF" width="4.9" height="4.9"/>
	</g>
	<g>
		<rect id="p_74_" x="90.8" y="58.8" fill="#FFFFFF" width="4.9" height="4.9"/>
	</g>
	<g>
		<rect id="p_75_" x="90.8" y="73.4" fill="#FFFFFF" width="4.9" height="4.9"/>
	</g>
	<g>
		<rect id="p_76_" x="90.8" y="88.1" fill="#FFFFFF" width="4.9" height="4.9"/>
	</g>
	<g>
		<rect id="p_77_" x="90.8" y="107.7" fill="#FFFFFF" width="4.9" height="4.9"/>
	</g>
	<g>
		<rect id="p_78_" x="90.8" y="137.1" fill="#FFFFFF" width="4.9" height="4.9"/>
	</g>
	<g>
		<rect id="p_79_" x="95.7" y="19.6" fill="#FFFFFF" width="4.9" height="4.9"/>
	</g>
	<g>
		<rect id="p_80_" x="95.7" y="24.5" fill="#FFFFFF" width="4.9" height="4.9"/>
	</g>
	<g>
		<rect id="p_81_" x="95.7" y="29.4" fill="#FFFFFF" width="4.9" height="4.9"/>
	</g>
	<g>
		<rect id="p_82_" x="95.7" y="34.3" fill="#FFFFFF" width="4.9" height="4.9"/>
	</g>
	<g>
		<rect id="p_83_" x="95.7" y="39.2" fill="#FFFFFF" width="4.9" height="4.9"/>
	</g>
	<g>
		<rect id="p_84_" x="95.7" y="44.1" fill="#FFFFFF" width="4.9" height="4.9"/>
	</g>
	<g>
		<rect id="p_85_" x="95.7" y="49" fill="#FFFFFF" width="4.9" height="4.9"/>
	</g>
	<g>
		<rect id="p_86_" x="95.7" y="58.8" fill="#FFFFFF" width="4.9" height="4.9"/>
	</g>
	<g>
		<rect id="p_87_" x="95.7" y="68.5" fill="#FFFFFF" width="4.9" height="4.9"/>
	</g>
	<g>
		<rect id="p_88_" x="95.7" y="78.3" fill="#FFFFFF" width="4.9" height="4.9"/>
	</g>
	<g>
		<rect id="p_89_" x="95.7" y="88.1" fill="#FFFFFF" width="4.9" height="4.9"/>
	</g>
	<g>
		<rect id="p_90_" x="95.7" y="97.9" fill="#FFFFFF" width="4.9" height="4.9"/>
	</g>
	<g>
		<rect id="p_91_" x="95.7" y="107.7" fill="#FFFFFF" width="4.9" height="4.9"/>
	</g>
	<g>
		<rect id="p_92_" x="95.7" y="112.6" fill="#FFFFFF" width="4.9" height="4.9"/>
	</g>
	<g>
		<rect id="p_93_" x="95.7" y="117.5" fill="#FFFFFF" width="4.9" height="4.9"/>
	</g>
	<g>
		<rect id="p_94_" x="95.7" y="122.4" fill="#FFFFFF" width="4.9" height="4.9"/>
	</g>
	<g>
		<rect id="p_95_" x="95.7" y="127.3" fill="#FFFFFF" width="4.9" height="4.9"/>
	</g>
	<g>
		<rect id="p_96_" x="95.7" y="132.2" fill="#FFFFFF" width="4.9" height="4.9"/>
	</g>
	<g>
		<rect id="p_97_" x="95.7" y="137.1" fill="#FFFFFF" width="4.9" height="4.9"/>
	</g>
	<g>
		<rect id="p_98_" x="100.6" y="58.8" fill="#FFFFFF" width="4.9" height="4.9"/>
	</g>
	<g>
		<rect id="p_99_" x="100.6" y="63.6" fill="#FFFFFF" width="4.9" height="4.9"/>
	</g>
	<g>
		<rect id="p_100_" x="100.6" y="68.5" fill="#FFFFFF" width="4.9" height="4.9"/>
	</g>
	<g>
		<rect id="p_101_" x="100.6" y="73.4" fill="#FFFFFF" width="4.9" height="4.9"/>
	</g>
	<g>
		<rect id="p_102_" x="100.6" y="93" fill="#FFFFFF" width="4.9" height="4.9"/>
	</g>
	<g>
		<rect id="p_103_" x="105.5" y="19.6" fill="#FFFFFF" width="4.9" height="4.9"/>
	</g>
	<g>
		<rect id="p_104_" x="105.5" y="24.5" fill="#FFFFFF" width="4.9" height="4.9"/>
	</g>
	<g>
		<rect id="p_105_" x="105.5" y="34.3" fill="#FFFFFF" width="4.9" height="4.9"/>
	</g>
	<g>
		<rect id="p_106_" x="105.5" y="49" fill="#FFFFFF" width="4.9" height="4.9"/>
	</g>
	<g>
		<rect id="p_107_" x="105.5" y="53.9" fill="#FFFFFF" width="4.9" height="4.9"/>
	</g>
	<g>
		<rect id="p_108_" x="105.5" y="63.6" fill="#FFFFFF" width="4.9" height="4.9"/>
	</g>
	<g>
		<rect id="p_109_" x="105.5" y="83.2" fill="#FFFFFF" width="4.9" height="4.9"/>
	</g>
	<g>
		<rect id="p_110_" x="105.5" y="93" fill="#FFFFFF" width="4.9" height="4.9"/>
	</g>
	<g>
		<rect id="p_111_" x="105.5" y="102.8" fill="#FFFFFF" width="4.9" height="4.9"/>
	</g>
	<g>
		<rect id="p_112_" x="105.5" y="107.7" fill="#FFFFFF" width="4.9" height="4.9"/>
	</g>
	<g>
		<rect id="p_113_" x="105.5" y="112.6" fill="#FFFFFF" width="4.9" height="4.9"/>
	</g>
	<g>
		<rect id="p_114_" x="105.5" y="122.4" fill="#FFFFFF" width="4.9" height="4.9"/>
	</g>
	<g>
		<rect id="p_115_" x="105.5" y="127.3" fill="#FFFFFF" width="4.9" height="4.9"/>
	</g>
	<g>
		<rect id="p_116_" x="105.5" y="137.1" fill="#FFFFFF" width="4.9" height="4.9"/>
	</g>
	<g>
		<rect id="p_117_" x="110.4" y="24.5" fill="#FFFFFF" width="4.9" height="4.9"/>
	</g>
	<g>
		<rect id="p_118_" x="110.4" y="34.3" fill="#FFFFFF" width="4.9" height="4.9"/>
	</g>
	<g>
		<rect id="p_119_" x="110.4" y="53.9" fill="#FFFFFF" width="4.9" height="4.9"/>
	</g>
	<g>
		<rect id="p_120_" x="110.4" y="58.8" fill="#FFFFFF" width="4.9" height="4.9"/>
	</g>
	<g>
		<rect id="p_121_" x="110.4" y="68.5" fill="#FFFFFF" width="4.9" height="4.9"/>
	</g>
	<g>
		<rect id="p_122_" x="110.4" y="78.3" fill="#FFFFFF" width="4.9" height="4.9"/>
	</g>
	<g>
		<rect id="p_123_" x="110.4" y="93" fill="#FFFFFF" width="4.9" height="4.9"/>
	</g>
	<g>
		<rect id="p_124_" x="110.4" y="102.8" fill="#FFFFFF" width="4.9" height="4.9"/>
	</g>
	<g>
		<rect id="p_125_" x="110.4" y="107.7" fill="#FFFFFF" width="4.9" height="4.9"/>
	</g>
	<g>
		<rect id="p_126_" x="110.4" y="112.6" fill="#FFFFFF" width="4.9" height="4.9"/>
	</g>
	<g>
		<rect id="p_127_" x="110.4" y="117.5" fill="#FFFFFF" width="4.9" height="4.9"/>
	</g>
	<g>
		<rect id="p_128_" x="110.4" y="137.1" fill="#FFFFFF" width="4.9" height="4.9"/>
	</g>
	<g>
		<rect id="p_129_" x="115.3" y="24.5" fill="#FFFFFF" width="4.9" height="4.9"/>
	</g>
	<g>
		<rect id="p_130_" x="115.3" y="29.4" fill="#FFFFFF" width="4.9" height="4.9"/>
	</g>
	<g>
		<rect id="p_131_" x="115.3" y="44.1" fill="#FFFFFF" width="4.9" height="4.9"/>
	</g>
	<g>
		<rect id="p_132_" x="115.3" y="49" fill="#FFFFFF" width="4.9" height="4.9"/>
	</g>
	<g>
		<rect id="p_133_" x="115.3" y="53.9" fill="#FFFFFF" width="4.9" height="4.9"/>
	</g>
	<g>
		<rect id="p_134_" x="115.3" y="63.6" fill="#FFFFFF" width="4.9" height="4.9"/>
	</g>
	<g>
		<rect id="p_135_" x="115.3" y="68.5" fill="#FFFFFF" width="4.9" height="4.9"/>
	</g>
	<g>
		<rect id="p_136_" x="115.3" y="78.3" fill="#FFFFFF" width="4.9" height="4.9"/>
	</g>
	<g>
		<rect id="p_137_" x="115.3" y="88.1" fill="#FFFFFF" width="4.9" height="4.9"/>
	</g>
	<g>
		<rect id="p_138_" x="115.3" y="97.9" fill="#FFFFFF" width="4.9" height="4.9"/>
	</g>
	<g>
		<rect id="p_139_" x="115.3" y="107.7" fill="#FFFFFF" width="4.9" height="4.9"/>
	</g>
	<g>
		<rect id="p_140_" x="115.3" y="112.6" fill="#FFFFFF" width="4.9" height="4.9"/>
	</g>
	<g>
		<rect id="p_141_" x="115.3" y="117.5" fill="#FFFFFF" width="4.9" height="4.9"/>
	</g>
	<g>
		<rect id="p_142_" x="115.3" y="122.4" fill="#FFFFFF" width="4.9" height="4.9"/>
	</g>
	<g>
		<rect id="p_143_" x="115.3" y="127.3" fill="#FFFFFF" width="4.9" height="4.9"/>
	</g>
	<g>
		<rect id="p_144_" x="115.3" y="132.2" fill="#FFFFFF" width="4.9" height="4.9"/>
	</g>
	<g>
		<rect id="p_145_" x="115.3" y="137.1" fill="#FFFFFF" width="4.9" height="4.9"/>
	</g>
	<g>
		<rect id="p_146_" x="120.2" y="24.5" fill="#FFFFFF" width="4.9" height="4.9"/>
	</g>
	<g>
		<rect id="p_147_" x="120.2" y="39.2" fill="#FFFFFF" width="4.9" height="4.9"/>
	</g>
	<g>
		<rect id="p_148_" x="120.2" y="44.1" fill="#FFFFFF" width="4.9" height="4.9"/>
	</g>
	<g>
		<rect id="p_149_" x="120.2" y="53.9" fill="#FFFFFF" width="4.9" height="4.9"/>
	</g>
	<g>
		<rect id="p_150_" x="120.2" y="63.6" fill="#FFFFFF" width="4.9" height="4.9"/>
	</g>
	<g>
		<rect id="p_151_" x="120.2" y="73.4" fill="#FFFFFF" width="4.9" height="4.9"/>
	</g>
	<g>
		<rect id="p_152_" x="120.2" y="83.2" fill="#FFFFFF" width="4.9" height="4.9"/>
	</g>
	<g>
		<rect id="p_153_" x="120.2" y="97.9" fill="#FFFFFF" width="4.9" height="4.9"/>
	</g>
	<g>
		<rect id="p_154_" x="120.2" y="107.7" fill="#FFFFFF" width="4.9" height="4.9"/>
	</g>
	<g>
		<rect id="p_155_" x="120.2" y="117.5" fill="#FFFFFF" width="4.9" height="4.9"/>
	</g>
	<g>
		<rect id="p_156_" x="120.2" y="127.3" fill="#FFFFFF" width="4.9" height="4.9"/>
	</g>
	<g>
		<rect id="p_157_" x="125.1" y="19.6" fill="#FFFFFF" width="4.9" height="4.9"/>
	</g>
	<g>
		<rect id="p_158_" x="125.1" y="24.5" fill="#FFFFFF" width="4.9" height="4.9"/>
	</g>
	<g>
		<rect id="p_159_" x="125.1" y="39.2" fill="#FFFFFF" width="4.9" height="4.9"/>
	</g>
	<g>
		<rect id="p_160_" x="125.1" y="44.1" fill="#FFFFFF" width="4.9" height="4.9"/>
	</g>
	<g>
		<rect id="p_161_" x="125.1" y="49" fill="#FFFFFF" width="4.9" height="4.9"/>
	</g>
	<g>
		<rect id="p_162_" x="125.1" y="53.9" fill="#FFFFFF" width="4.9" height="4.9"/>
	</g>
	<g>
		<rect id="p_163_" x="125.1" y="88.1" fill="#FFFFFF" width="4.9" height="4.9"/>
	</g>
	<g>
		<rect id="p_164_" x="125.1" y="93" fill="#FFFFFF" width="4.9" height="4.9"/>
	</g>
	<g>
		<rect id="p_165_" x="125.1" y="102.8" fill="#FFFFFF" width="4.9" height="4.9"/>
	</g>
	<g>
		<rect id="p_166_" x="125.1" y="107.7" fill="#FFFFFF" width="4.9" height="4.9"/>
	</g>
	<g>
		<rect id="p_167_" x="125.1" y="112.6" fill="#FFFFFF" width="4.9" height="4.9"/>
	</g>
	<g>
		<rect id="p_168_" x="125.1" y="117.5" fill="#FFFFFF" width="4.9" height="4.9"/>
	</g>
	<g>
		<rect id="p_169_" x="125.1" y="122.4" fill="#FFFFFF" width="4.9" height="4.9"/>
	</g>
	<g>
		<rect id="p_170_" x="125.1" y="127.3" fill="#FFFFFF" width="4.9" height="4.9"/>
	</g>
	<g>
		<rect id="p_171_" x="125.1" y="137.1" fill="#FFFFFF" width="4.9" height="4.9"/>
	</g>
	<g>
		<rect id="p_172_" x="130" y="19.6" fill="#FFFFFF" width="4.9" height="4.9"/>
	</g>
	<g>
		<rect id="p_173_" x="130" y="29.4" fill="#FFFFFF" width="4.9" height="4.9"/>
	</g>
	<g>
		<rect id="p_174_" x="130" y="39.2" fill="#FFFFFF" width="4.9" height="4.9"/>
	</g>
	<g>
		<rect id="p_175_" x="130" y="53.9" fill="#FFFFFF" width="4.9" height="4.9"/>
	</g>
	<g>
		<rect id="p_176_" x="130" y="58.8" fill="#FFFFFF" width="4.9" height="4.9"/>
	</g>
	<g>
		<rect id="p_177_" x="130" y="73.4" fill="#FFFFFF" width="4.9" height="4.9"/>
	</g>
	<g>
		<rect id="p_178_" x="130" y="83.2" fill="#FFFFFF" width="4.9" height="4.9"/>
	</g>
	<g>
		<rect id="p_179_" x="130" y="93" fill="#FFFFFF" width="4.9" height="4.9"/>
	</g>
	<g>
		<rect id="p_180_" x="130" y="102.8" fill="#FFFFFF" width="4.9" height="4.9"/>
	</g>
	<g>
		<rect id="p_181_" x="130" y="117.5" fill="#FFFFFF" width="4.9" height="4.9"/>
	</g>
	<g>
		<rect id="p_182_" x="130" y="122.4" fill="#FFFFFF" width="4.9" height="4.9"/>
	</g>
	<g>
		<rect id="p_183_" x="130" y="127.3" fill="#FFFFFF" width="4.9" height="4.9"/>
	</g>
	<g>
		<rect id="p_184_" x="134.9" y="19.6" fill="#FFFFFF" width="4.9" height="4.9"/>
	</g>
	<g>
		<rect id="p_185_" x="134.9" y="24.5" fill="#FFFFFF" width="4.9" height="4.9"/>
	</g>
	<g>
		<rect id="p_186_" x="134.9" y="29.4" fill="#FFFFFF" width="4.9" height="4.9"/>
	</g>
	<g>
		<rect id="p_187_" x="134.9" y="39.2" fill="#FFFFFF" width="4.9" height="4.9"/>
	</g>
	<g>
		<rect id="p_188_" x="134.9" y="44.1" fill="#FFFFFF" width="4.9" height="4.9"/>
	</g>
	<g>
		<rect id="p_189_" x="134.9" y="49" fill="#FFFFFF" width="4.9" height="4.9"/>
	</g>
	<g>
		<rect id="p_190_" x="134.9" y="53.9" fill="#FFFFFF" width="4.9" height="4.9"/>
	</g>
	<g>
		<rect id="p_191_" x="134.9" y="58.8" fill="#FFFFFF" width="4.9" height="4.9"/>
	</g>
	<g>
		<rect id="p_192_" x="134.9" y="68.5" fill="#FFFFFF" width="4.9" height="4.9"/>
	</g>
	<g>
		<rect id="p_193_" x="134.9" y="73.4" fill="#FFFFFF" width="4.9" height="4.9"/>
	</g>
	<g>
		<rect id="p_194_" x="134.9" y="88.1" fill="#FFFFFF" width="4.9" height="4.9"/>
	</g>
	<g>
		<rect id="p_195_" x="134.9" y="122.4" fill="#FFFFFF" width="4.9" height="4.9"/>
	</g>
	<g>
		<rect id="p_196_" x="134.9" y="137.1" fill="#FFFFFF" width="4.9" height="4.9"/>
	</g>
	<g>
		<rect id="p_197_" x="139.8" y="29.4" fill="#FFFFFF" width="4.9" height="4.9"/>
	</g>
	<g>
		<rect id="p_198_" x="139.8" y="34.3" fill="#FFFFFF" width="4.9" height="4.9"/>
	</g>
	<g>
		<rect id="p_199_" x="139.8" y="39.2" fill="#FFFFFF" width="4.9" height="4.9"/>
	</g>
	<g>
		<rect id="p_200_" x="139.8" y="53.9" fill="#FFFFFF" width="4.9" height="4.9"/>
	</g>
	<g>
		<rect id="p_201_" x="139.8" y="58.8" fill="#FFFFFF" width="4.9" height="4.9"/>
	</g>
	<g>
		<rect id="p_202_" x="139.8" y="73.4" fill="#FFFFFF" width="4.9" height="4.9"/>
	</g>
	<g>
		<rect id="p_203_" x="139.8" y="83.2" fill="#FFFFFF" width="4.9" height="4.9"/>
	</g>
	<g>
		<rect id="p_204_" x="139.8" y="102.8" fill="#FFFFFF" width="4.9" height="4.9"/>
	</g>
	<g>
		<rect id="p_205_" x="139.8" y="112.6" fill="#FFFFFF" width="4.9" height="4.9"/>
	</g>
	<g>
		<rect id="p_206_" x="139.8" y="127.3" fill="#FFFFFF" width="4.9" height="4.9"/>
	</g>
	<g>
		<rect id="p_207_" x="144.7" y="19.6" fill="#FFFFFF" width="4.9" height="4.9"/>
	</g>
	<g>
		<rect id="p_208_" x="144.7" y="29.4" fill="#FFFFFF" width="4.9" height="4.9"/>
	</g>
	<g>
		<rect id="p_209_" x="144.7" y="39.2" fill="#FFFFFF" width="4.9" height="4.9"/>
	</g>
	<g>
		<rect id="p_210_" x="144.7" y="44.1" fill="#FFFFFF" width="4.9" height="4.9"/>
	</g>
	<g>
		<rect id="p_211_" x="144.7" y="49" fill="#FFFFFF" width="4.9" height="4.9"/>
	</g>
	<g>
		<rect id="p_212_" x="144.7" y="53.9" fill="#FFFFFF" width="4.9" height="4.9"/>
	</g>
	<g>
		<rect id="p_213_" x="144.7" y="58.8" fill="#FFFFFF" width="4.9" height="4.9"/>
	</g>
	<g>
		<rect id="p_214_" x="144.7" y="68.5" fill="#FFFFFF" width="4.9" height="4.9"/>
	</g>
	<g>
		<rect id="p_215_" x="144.7" y="73.4" fill="#FFFFFF" width="4.9" height="4.9"/>
	</g>
	<g>
		<rect id="p_216_" x="144.7" y="83.2" fill="#FFFFFF" width="4.9" height="4.9"/>
	</g>
	<g>
		<rect id="p_217_" x="144.7" y="97.9" fill="#FFFFFF" width="4.9" height="4.9"/>
	</g>
	<g>
		<rect id="p_218_" x="144.7" y="102.8" fill="#FFFFFF" width="4.9" height="4.9"/>
	</g>
	<g>
		<rect id="p_219_" x="144.7" y="107.7" fill="#FFFFFF" width="4.9" height="4.9"/>
	</g>
	<g>
		<rect id="p_220_" x="144.7" y="112.6" fill="#FFFFFF" width="4.9" height="4.9"/>
	</g>
	<g>
		<rect id="p_221_" x="144.7" y="117.5" fill="#FFFFFF" width="4.9" height="4.9"/>
	</g>
	<g>
		<rect id="p_222_" x="144.7" y="127.3" fill="#FFFFFF" width="4.9" height="4.9"/>
	</g>
	<g>
		<rect id="p_223_" x="149.6" y="73.4" fill="#FFFFFF" width="4.9" height="4.9"/>
	</g>
	<g>
		<rect id="p_224_" x="149.6" y="78.3" fill="#FFFFFF" width="4.9" height="4.9"/>
	</g>
	<g>
		<rect id="p_225_" x="149.6" y="88.1" fill="#FFFFFF" width="4.9" height="4.9"/>
	</g>
	<g>
		<rect id="p_226_" x="149.6" y="97.9" fill="#FFFFFF" width="4.9" height="4.9"/>
	</g>
	<g>
		<rect id="p_227_" x="149.6" y="117.5" fill="#FFFFFF" width="4.9" height="4.9"/>
	</g>
	<g>
		<rect id="p_228_" x="149.6" y="122.4" fill="#FFFFFF" width="4.9" height="4.9"/>
	</g>
	<g>
		<rect id="p_229_" x="149.6" y="127.3" fill="#FFFFFF" width="4.9" height="4.9"/>
	</g>
	<g>
		<rect id="p_230_" x="149.6" y="132.2" fill="#FFFFFF" width="4.9" height="4.9"/>
	</g>
	<g>
		<rect id="p_231_" x="149.6" y="137.1" fill="#FFFFFF" width="4.9" height="4.9"/>
	</g>
	<g>
		<rect id="p_232_" x="154.5" y="19.6" fill="#FFFFFF" width="4.9" height="4.9"/>
	</g>
	<g>
		<rect id="p_233_" x="154.5" y="24.5" fill="#FFFFFF" width="4.9" height="4.9"/>
	</g>
	<g>
		<rect id="p_234_" x="154.5" y="29.4" fill="#FFFFFF" width="4.9" height="4.9"/>
	</g>
	<g>
		<rect id="p_235_" x="154.5" y="34.3" fill="#FFFFFF" width="4.9" height="4.9"/>
	</g>
	<g>
		<rect id="p_236_" x="154.5" y="39.2" fill="#FFFFFF" width="4.9" height="4.9"/>
	</g>
	<g>
		<rect id="p_237_" x="154.5" y="44.1" fill="#FFFFFF" width="4.9" height="4.9"/>
	</g>
	<g>
		<rect id="p_238_" x="154.5" y="49" fill="#FFFFFF" width="4.9" height="4.9"/>
	</g>
	<g>
		<rect id="p_239_" x="154.5" y="58.8" fill="#FFFFFF" width="4.9" height="4.9"/>
	</g>
	<g>
		<rect id="p_240_" x="154.5" y="68.5" fill="#FFFFFF" width="4.9" height="4.9"/>
	</g>
	<g>
		<rect id="p_241_" x="154.5" y="73.4" fill="#FFFFFF" width="4.9" height="4.9"/>
	</g>
	<g>
		<rect id="p_242_" x="154.5" y="78.3" fill="#FFFFFF" width="4.9" height="4.9"/>
	</g>
	<g>
		<rect id="p_243_" x="154.5" y="83.2" fill="#FFFFFF" width="4.9" height="4.9"/>
	</g>
	<g>
		<rect id="p_244_" x="154.5" y="93" fill="#FFFFFF" width="4.9" height="4.9"/>
	</g>
	<g>
		<rect id="p_245_" x="154.5" y="97.9" fill="#FFFFFF" width="4.9" height="4.9"/>
	</g>
	<g>
		<rect id="p_246_" x="154.5" y="107.7" fill="#FFFFFF" width="4.9" height="4.9"/>
	</g>
	<g>
		<rect id="p_247_" x="154.5" y="117.5" fill="#FFFFFF" width="4.9" height="4.9"/>
	</g>
	<g>
		<rect id="p_248_" x="154.5" y="122.4" fill="#FFFFFF" width="4.9" height="4.9"/>
	</g>
	<g>
		<rect id="p_249_" x="154.5" y="127.3" fill="#FFFFFF" width="4.9" height="4.9"/>
	</g>
	<g>
		<rect id="p_250_" x="154.5" y="132.2" fill="#FFFFFF" width="4.9" height="4.9"/>
	</g>
	<g>
		<rect id="p_251_" x="159.4" y="19.6" fill="#FFFFFF" width="4.9" height="4.9"/>
	</g>
	<g>
		<rect id="p_252_" x="159.4" y="49" fill="#FFFFFF" width="4.9" height="4.9"/>
	</g>
	<g>
		<rect id="p_253_" x="159.4" y="63.6" fill="#FFFFFF" width="4.9" height="4.9"/>
	</g>
	<g>
		<rect id="p_254_" x="159.4" y="73.4" fill="#FFFFFF" width="4.9" height="4.9"/>
	</g>
	<g>
		<rect id="p_255_" x="159.4" y="83.2" fill="#FFFFFF" width="4.9" height="4.9"/>
	</g>
	<g>
		<rect id="p_256_" x="159.4" y="88.1" fill="#FFFFFF" width="4.9" height="4.9"/>
	</g>
	<g>
		<rect id="p_257_" x="159.4" y="97.9" fill="#FFFFFF" width="4.9" height="4.9"/>
	</g>
	<g>
		<rect id="p_258_" x="159.4" y="117.5" fill="#FFFFFF" width="4.9" height="4.9"/>
	</g>
	<g>
		<rect id="p_259_" x="159.4" y="122.4" fill="#FFFFFF" width="4.9" height="4.9"/>
	</g>
	<g>
		<rect id="p_260_" x="159.4" y="127.3" fill="#FFFFFF" width="4.9" height="4.9"/>
	</g>
	<g>
		<rect id="p_261_" x="159.4" y="137.1" fill="#FFFFFF" width="4.9" height="4.9"/>
	</g>
	<g>
		<rect id="p_262_" x="164.3" y="19.6" fill="#FFFFFF" width="4.9" height="4.9"/>
	</g>
	<g>
		<rect id="p_263_" x="164.3" y="29.4" fill="#FFFFFF" width="4.9" height="4.9"/>
	</g>
	<g>
		<rect id="p_264_" x="164.3" y="34.3" fill="#FFFFFF" width="4.9" height="4.9"/>
	</g>
	<g>
		<rect id="p_265_" x="164.3" y="39.2" fill="#FFFFFF" width="4.9" height="4.9"/>
	</g>
	<g>
		<rect id="p_266_" x="164.3" y="49" fill="#FFFFFF" width="4.9" height="4.9"/>
	</g>
	<g>
		<rect id="p_267_" x="164.3" y="68.5" fill="#FFFFFF" width="4.9" height="4.9"/>
	</g>
	<g>
		<rect id="p_268_" x="164.3" y="73.4" fill="#FFFFFF" width="4.9" height="4.9"/>
	</g>
	<g>
		<rect id="p_269_" x="164.3" y="78.3" fill="#FFFFFF" width="4.9" height="4.9"/>
	</g>
	<g>
		<rect id="p_270_" x="164.3" y="83.2" fill="#FFFFFF" width="4.9" height="4.9"/>
	</g>
	<g>
		<rect id="p_271_" x="164.3" y="97.9" fill="#FFFFFF" width="4.9" height="4.9"/>
	</g>
	<g>
		<rect id="p_272_" x="164.3" y="102.8" fill="#FFFFFF" width="4.9" height="4.9"/>
	</g>
	<g>
		<rect id="p_273_" x="164.3" y="107.7" fill="#FFFFFF" width="4.9" height="4.9"/>
	</g>
	<g>
		<rect id="p_274_" x="164.3" y="112.6" fill="#FFFFFF" width="4.9" height="4.9"/>
	</g>
	<g>
		<rect id="p_275_" x="164.3" y="117.5" fill="#FFFFFF" width="4.9" height="4.9"/>
	</g>
	<g>
		<rect id="p_276_" x="164.3" y="122.4" fill="#FFFFFF" width="4.9" height="4.9"/>
	</g>
	<g>
		<rect id="p_277_" x="164.3" y="127.3" fill="#FFFFFF" width="4.9" height="4.9"/>
	</g>
	<g>
		<rect id="p_278_" x="164.3" y="132.2" fill="#FFFFFF" width="4.9" height="4.9"/>
	</g>
	<g>
		<rect id="p_279_" x="164.3" y="137.1" fill="#FFFFFF" width="4.9" height="4.9"/>
	</g>
	<g>
		<rect id="p_280_" x="169.2" y="19.6" fill="#FFFFFF" width="4.9" height="4.9"/>
	</g>
	<g>
		<rect id="p_281_" x="169.2" y="29.4" fill="#FFFFFF" width="4.9" height="4.9"/>
	</g>
	<g>
		<rect id="p_282_" x="169.2" y="34.3" fill="#FFFFFF" width="4.9" height="4.9"/>
	</g>
	<g>
		<rect id="p_283_" x="169.2" y="39.2" fill="#FFFFFF" width="4.9" height="4.9"/>
	</g>
	<g>
		<rect id="p_284_" x="169.2" y="49" fill="#FFFFFF" width="4.9" height="4.9"/>
	</g>
	<g>
		<rect id="p_285_" x="169.2" y="58.8" fill="#FFFFFF" width="4.9" height="4.9"/>
	</g>
	<g>
		<rect id="p_286_" x="169.2" y="73.4" fill="#FFFFFF" width="4.9" height="4.9"/>
	</g>
	<g>
		<rect id="p_287_" x="169.2" y="93" fill="#FFFFFF" width="4.9" height="4.9"/>
	</g>
	<g>
		<rect id="p_288_" x="169.2" y="97.9" fill="#FFFFFF" width="4.9" height="4.9"/>
	</g>
	<g>
		<rect id="p_289_" x="169.2" y="107.7" fill="#FFFFFF" width="4.9" height="4.9"/>
	</g>
	<g>
		<rect id="p_290_" x="169.2" y="127.3" fill="#FFFFFF" width="4.9" height="4.9"/>
	</g>
	<g>
		<rect id="p_291_" x="169.2" y="137.1" fill="#FFFFFF" width="4.9" height="4.9"/>
	</g>
	<g>
		<rect id="p_292_" x="174.1" y="19.6" fill="#FFFFFF" width="4.9" height="4.9"/>
	</g>
	<g>
		<rect id="p_293_" x="174.1" y="29.4" fill="#FFFFFF" width="4.9" height="4.9"/>
	</g>
	<g>
		<rect id="p_294_" x="174.1" y="34.3" fill="#FFFFFF" width="4.9" height="4.9"/>
	</g>
	<g>
		<rect id="p_295_" x="174.1" y="39.2" fill="#FFFFFF" width="4.9" height="4.9"/>
	</g>
	<g>
		<rect id="p_296_" x="174.1" y="49" fill="#FFFFFF" width="4.9" height="4.9"/>
	</g>
	<g>
		<rect id="p_297_" x="174.1" y="73.4" fill="#FFFFFF" width="4.9" height="4.9"/>
	</g>
	<g>
		<rect id="p_298_" x="174.1" y="78.3" fill="#FFFFFF" width="4.9" height="4.9"/>
	</g>
	<g>
		<rect id="p_299_" x="174.1" y="88.1" fill="#FFFFFF" width="4.9" height="4.9"/>
	</g>
	<g>
		<rect id="p_300_" x="174.1" y="97.9" fill="#FFFFFF" width="4.9" height="4.9"/>
	</g>
	<g>
		<rect id="p_301_" x="174.1" y="107.7" fill="#FFFFFF" width="4.9" height="4.9"/>
	</g>
	<g>
		<rect id="p_302_" x="174.1" y="122.4" fill="#FFFFFF" width="4.9" height="4.9"/>
	</g>
	<g>
		<rect id="p_303_" x="174.1" y="127.3" fill="#FFFFFF" width="4.9" height="4.9"/>
	</g>
	<g>
		<rect id="p_304_" x="174.1" y="132.2" fill="#FFFFFF" width="4.9" height="4.9"/>
	</g>
	<g>
		<rect id="p_305_" x="174.1" y="137.1" fill="#FFFFFF" width="4.9" height="4.9"/>
	</g>
	<g>
		<rect id="p_306_" x="179" y="19.6" fill="#FFFFFF" width="4.9" height="4.9"/>
	</g>
	<g>
		<rect id="p_307_" x="179" y="49" fill="#FFFFFF" width="4.9" height="4.9"/>
	</g>
	<g>
		<rect id="p_308_" x="179" y="58.8" fill="#FFFFFF" width="4.9" height="4.9"/>
	</g>
	<g>
		<rect id="p_309_" x="179" y="63.6" fill="#FFFFFF" width="4.9" height="4.9"/>
	</g>
	<g>
		<rect id="p_310_" x="179" y="78.3" fill="#FFFFFF" width="4.9" height="4.9"/>
	</g>
	<g>
		<rect id="p_311_" x="179" y="88.1" fill="#FFFFFF" width="4.9" height="4.9"/>
	</g>
	<g>
		<rect id="p_312_" x="179" y="97.9" fill="#FFFFFF" width="4.9" height="4.9"/>
	</g>
	<g>
		<rect id="p_313_" x="179" y="107.7" fill="#FFFFFF" width="4.9" height="4.9"/>
	</g>
	<g>
		<rect id="p_314_" x="179" y="112.6" fill="#FFFFFF" width="4.9" height="4.9"/>
	</g>
	<g>
		<rect id="p_315_" x="179" y="122.4" fill="#FFFFFF" width="4.9" height="4.9"/>
	</g>
	<g>
		<rect id="p_316_" x="179" y="127.3" fill="#FFFFFF" width="4.9" height="4.9"/>
	</g>
	<g>
		<rect id="p_317_" x="179" y="137.1" fill="#FFFFFF" width="4.9" height="4.9"/>
	</g>
	<g>
		<rect id="p_318_" x="183.9" y="19.6" fill="#FFFFFF" width="4.9" height="4.9"/>
	</g>
	<g>
		<rect id="p_319_" x="183.9" y="24.5" fill="#FFFFFF" width="4.9" height="4.9"/>
	</g>
	<g>
		<rect id="p_320_" x="183.9" y="29.4" fill="#FFFFFF" width="4.9" height="4.9"/>
	</g>
	<g>
		<rect id="p_321_" x="183.9" y="34.3" fill="#FFFFFF" width="4.9" height="4.9"/>
	</g>
	<g>
		<rect id="p_322_" x="183.9" y="39.2" fill="#FFFFFF" width="4.9" height="4.9"/>
	</g>
	<g>
		<rect id="p_323_" x="183.9" y="44.1" fill="#FFFFFF" width="4.9" height="4.9"/>
	</g>
	<g>
		<rect id="p_324_" x="183.9" y="49" fill="#FFFFFF" width="4.9" height="4.9"/>
	</g>
	<g>
		<rect id="p_325_" x="183.9" y="58.8" fill="#FFFFFF" width="4.9" height="4.9"/>
	</g>
	<g>
		<rect id="p_326_" x="183.9" y="78.3" fill="#FFFFFF" width="4.9" height="4.9"/>
	</g>
	<g>
		<rect id="p_327_" x="183.9" y="83.2" fill="#FFFFFF" width="4.9" height="4.9"/>
	</g>
	<g>
		<rect id="p_328_" x="183.9" y="93" fill="#FFFFFF" width="4.9" height="4.9"/>
	</g>
	<g>
		<rect id="p_329_" x="183.9" y="97.9" fill="#FFFFFF" width="4.9" height="4.9"/>
	</g>
	<g>
		<rect id="p_330_" x="183.9" y="102.8" fill="#FFFFFF" width="4.9" height="4.9"/>
	</g>
	<g>
		<rect id="p_331_" x="183.9" y="107.7" fill="#FFFFFF" width="4.9" height="4.9"/>
	</g>
	<g>
		<rect id="p_332_" x="183.9" y="112.6" fill="#FFFFFF" width="4.9" height="4.9"/>
	</g>
	<g>
		<rect id="p_333_" x="183.9" y="122.4" fill="#FFFFFF" width="4.9" height="4.9"/>
	</g>
	<g>
		<rect id="p_334_" x="183.9" y="137.1" fill="#FFFFFF" width="4.9" height="4.9"/>
	</g>
</g>
</svg>
