<?xml version="1.0" encoding="utf-8"?>
<!-- Generator: Adobe Illustrator 18.0.0, SVG Export Plug-In . SVG Version: 6.00 Build 0)  -->
<!DOCTYPE svg PUBLIC "-//W3C//DTD SVG 1.1//EN" "http://www.w3.org/Graphics/SVG/1.1/DTD/svg11.dtd">
<svg version="1.1" id="Слой_1" xmlns="http://www.w3.org/2000/svg" xmlns:xlink="http://www.w3.org/1999/xlink" x="0px" y="0px"
	 viewBox="0 0 300 300" enable-background="new 0 0 300 300" xml:space="preserve">
<g>
	<path opacity="0.3" fill="#685F5D" enable-background="new    " d="M280,24.6c0-0.2,0-0.4-0.2-0.7c0-0.4-0.2-0.9-0.4-1.3
		c0-0.2-0.2-0.4-0.4-0.9c-0.2-0.4-0.2-0.7-0.4-1.1c-0.2-0.2-0.4-0.7-0.4-0.9c-0.2-0.2-0.2-0.4-0.2-0.4l0,0c-2-2.7-4.9-4.5-8.5-4.7
		L40.8,0C34.4-0.4,29,4.5,28.5,11l-8.9,139.1L16,205.4c-0.2,3.8,1.6,7.4,4.2,9.8c0,0,0,0,0.2,0.2l0,0c0.4,0.2,0.9,0.4,1.3,0.9
		c0.2,0.2,0.4,0.2,0.7,0.4l0,0l0,0c0,0,0,0,0.2,0c0.2,0.2,0.4,0.2,0.7,0.4c0,0,0,0,0.2,0c0.2,0.2,0.7,0.2,0.9,0.2c0,0,0,0,0.2,0l0,0
		l0,0c0.2,0,0.4,0.2,0.9,0.2h0.2c0.4,0,0.7,0.2,1.1,0.2l32,2l-13,67.3l-0.2,0.2v1.6l182.3,11.6l-2.2-70.2l29.7,2
		c6.5,0.4,11.9-4.5,12.3-11l3.6-55.7l8.9-139.1C280.2,26,280.2,25.3,280,24.6z"/>
	<g>
		<path fill="#FFFFFF" d="M280,209.6c0,6.5-5.1,11.6-11.6,11.6H39.5c-6.5,0-11.6-5.1-11.6-11.6V14.3c0-6.5,5.1-11.6,11.6-11.6h228.8
			c6.5,0,11.6,5.1,11.6,11.6V209.6z"/>
		<path fill="#E3E3E3" d="M280,209.6V14.3c0-2.9-1.1-5.4-2.7-7.6l-246,210.9c2,2.2,4.9,3.6,8.3,3.6h228.8
			C274.8,221.2,280,216.1,280,209.6z"/>
		<path fill="#4F4946" d="M27.6,153.9v55.7c0,6.5,5.1,11.6,11.6,11.6h228.8c6.5,0,11.6-5.1,11.6-11.6v-55.7H27.6z"/>
		<path fill="#34302F" d="M31,217.9c1.1,1.1,2.2,2,3.6,2.5l0,0c0.2,0.2,0.7,0.2,0.9,0.4c0,0,0,0,0.2,0s0.7,0.2,0.9,0.2h0.2
			c0.2,0,0.7,0,0.9,0.2h0.2c0.4,0,0.7,0,1.1,0h228.8c6.5,0,11.6-5.1,11.6-11.6v-55.7H105.3L31,217.9z"/>
		<path fill="#4F4946" d="M178.9,98.7c-13.9,13.9-36.2,13.9-50.1,0c-13.9-13.9-13.9-36.2,0-50.1c13.9-13.9,36.2-13.9,50.1,0
			C192.7,62.4,192.7,84.8,178.9,98.7z"/>
		<path fill="#34302F" d="M178.9,98.7c13.9-13.9,13.9-36.2,0-50.1l-50.1,50.1C142.6,112.5,165,112.5,178.9,98.7z"/>
		<path fill="#34302F" d="M252.9,187.5c0,2.9-2.7,5.4-5.8,5.4H60.5c-3.1,0-5.8-2.5-5.8-5.4l0,0c0-2.9,2.7-5.4,5.8-5.4h186.5
			C250.2,182.3,252.9,184.6,252.9,187.5L252.9,187.5z"/>
		<path fill="#34302F" d="M254.9,50.4c0,4.9-4,8.9-8.9,8.9h-17c-4.9,0-8.9-4-8.9-8.9v-17c0-4.9,4-8.9,8.9-8.9h17
			c4.9,0,8.9,4,8.9,8.9V50.4z"/>
		<polygon fill="#FFFFFF" points="245.1,291.3 62.5,291.3 75.5,188.4 235.4,188.4 		"/>
		<polygon fill="#FFFFFF" points="235.4,188.4 168.1,188.4 62.5,289.7 62.5,291.3 245.1,291.3 		"/>
		<polygon fill="#989798" points="220.5,242.5 87.4,242.5 93.9,187.9 217.1,187.9 		"/>
		<polygon fill="#E3E3E3" points="220.5,242.5 217.1,187.9 168.1,187.9 111.3,242.5 		"/>
		<rect x="59.2" y="185.5" fill="#34302F" width="191" height="4"/>
		<path fill="#DE5A57" d="M84.2,98c0,6.3-4.9,11.2-11.2,11.2c-6.3,0-11.2-4.9-11.2-11.2c0-6.3,5.1-11.2,11.2-11.2
			C79.3,86.6,84.2,91.7,84.2,98z"/>
	</g>
</g>
</svg>
