<?xml version="1.0" encoding="utf-8"?>
<!-- Generator: Adobe Illustrator 18.0.0, SVG Export Plug-In . SVG Version: 6.00 Build 0)  -->
<!DOCTYPE svg PUBLIC "-//W3C//DTD SVG 1.1//EN" "http://www.w3.org/Graphics/SVG/1.1/DTD/svg11.dtd">
<svg version="1.1" id="Слой_1" xmlns="http://www.w3.org/2000/svg" xmlns:xlink="http://www.w3.org/1999/xlink" x="0px" y="0px"
	 viewBox="0 0 300 300" enable-background="new 0 0 300 300" xml:space="preserve">
<path fill="#F8B231" d="M254.1,33.6c6.3,0,11.4,5.1,11.4,11.4v180.8c0,6.3-5.1,11.4-11.4,11.4s-11.4-5.1-11.4-11.4V45
	C242.7,38.8,247.8,33.6,254.1,33.6z"/>
<path fill="#4C4C4D" d="M93.3,174.5c5.7,0,10.5,6.5,10.5,14.3S99,203,93.3,203s-10.5-6.5-10.5-14.3S87.6,174.5,93.3,174.5z"/>
<path fill="#F29320" d="M107.6,248.2l-18.1,6.3c-1.9,0.8-4.2-0.4-4.8-2.3l-29.5-85.3c-0.8-1.9,0.4-4.2,2.3-4.8l18.1-6.3
	c1.9-0.8,4.2,0.4,4.8,2.3l29.3,85.1C110.6,245.3,109.5,247.4,107.6,248.2z"/>
<path fill="#ECECEC" d="M27.6,111.7c6.3,0,11.4,11,11.4,24.7s-5.1,24.7-11.4,24.7s-15.2-11-15.2-24.7S21.3,111.7,27.6,111.7z"/>
<path fill="#F8B231" d="M35.2,85h74.2c4.2,0,7.6,3.4,7.6,7.6v85.7c0,4.2-3.4,7.6-7.6,7.6H35.2c-4.2,0-7.6-3.4-7.6-7.6V92.6
	C27.6,88.4,31,85,35.2,85z"/>
<path fill="#DDDDDD" d="M103.7,96.4h139v131.3l-139-41.9V96.4z"/>
<path fill="#E8E8E8" d="M103.7,85l139-40v66.6l-139,19V85z"/>
<path fill="#ECECEC" d="M276,119.3c6.9,0,12.4,7.2,12.4,16.2c0,8.9-5.5,16.2-12.4,16.2s-10.5-8.2-10.5-17.1S269.2,119.3,276,119.3z"
	/>
<path fill="#4C4C4D" d="M265.6,119.3h9.5v32.4h-9.5V119.3z"/>
<path fill="#F29320" d="M88.1,103.1L88.1,103.1c-2.9,0-5.3-2.3-5.3-5.3l0,0c0-2.9,2.3-5.3,5.3-5.3l0,0c2.9,0,5.1,2.3,5.1,5.3l0,0
	C93.3,100.8,91,103.1,88.1,103.1z"/>
</svg>
