<?xml version="1.0" encoding="utf-8"?>
<!-- Generator: Adobe Illustrator 16.0.0, SVG Export Plug-In . SVG Version: 6.00 Build 0)  -->
<!DOCTYPE svg PUBLIC "-//W3C//DTD SVG 1.1//EN" "http://www.w3.org/Graphics/SVG/1.1/DTD/svg11.dtd">
<svg version="1.1" id="Layer_1" xmlns="http://www.w3.org/2000/svg" xmlns:xlink="http://www.w3.org/1999/xlink" x="0px" y="0px"
	 viewBox="0 243 612 306" enable-background="new 0 243 612 306" xml:space="preserve">
<path fill="#EE3442" d="M0,243h612v306H0V243z"/>
<path fill="#FFFFFF" d="M133.493,354.415c-11.827,0-21.757,2.447-29.009,4.146v-46.91c0-5.584-1.683-7.526-7.252-7.526h-13.28
	c-5.554,0-7.482,1.942-7.482,7.526v154.792c0,7.785,1.209,9.715,8.951,13.372c8.461,3.642,24.159,7.771,43.728,7.771
	c36.98,0,54.605-18.223,54.605-51.516v-32.804C183.753,372.407,168.055,354.415,133.493,354.415z M155.724,435.336
	c0,17.979-9.18,26.484-28.504,26.484c-7.972,0-15.239-0.964-20.793-2.906c-1.667-0.734-1.928-1.454-1.928-2.678V384.54
	c5.814-1.941,14.749-4.359,24.893-4.359c17.167,0,26.347,8.506,26.347,23.807v31.35L155.724,435.336L155.724,435.336z
	 M252.695,350.039c-34.93,0-53.703,19.323-53.703,54.208v29.637c0,30.875,15.285,53.719,53.244,53.719
	c26.146,0,41.662-9.285,50-24.098c3.243-5.521,2.54-9.792-2.785-12.546l-8.094-4.774c-5.553-3.271-8.094-2.509-11.795,3.017
	c-4.865,8.292-13.664,13.311-27.312,13.311c-16.892,0-26.393-8.78-26.393-25.105v-9.287h69.891c8.094,0,10.419-4.253,10.419-10.786
	v-15.314C306.168,373.126,289.507,350.039,252.695,350.039z M279.316,405.746h-53.458v-5.509c0-16.311,9.486-25.611,26.836-25.611
	c17.595,0,26.621,9.287,26.621,25.611V405.746z M405.251,362.981h-29.116v-21.113c0-5.401-2.05-7.038-7.938-7.038H354.41
	c-5.875,0-7.926,1.637-7.926,7.038v21.113h-17.625c-5.875,0-7.665,1.638-7.665,7.037v10.803c0,5.4,1.79,7.283,7.665,7.283h17.625
	v48.104c0,40.591,16.354,52.801,58.521,51.623c6.12-0.245,8.171-1.882,8.171-7.513v-10.804c0-5.631-2.051-7.268-8.171-7.268
	c-21.466,0-28.886-3.993-28.886-26.989v-47.17h29.116c5.89,0,7.938-1.882,7.938-7.282v-10.785
	C413.177,364.635,411.142,362.981,405.251,362.981z M483.357,350.039c-25.367,0-42.197,9.792-50.477,26.103
	c-2.922,5.769-1.224,8.781,4.146,11.293l9.746,4.269c5.613,2.249,7.066,1.5,10.494-3.779c5.109-8.017,13.402-12.041,25.599-12.041
	c18.283,0,24.373,9.042,24.373,24.847v7.022c-4.131-0.244-13.895-1.254-23.396-1.254c-39,0-55.341,10.28-55.341,40.407
	c0,26.117,11.215,40.667,54.377,40.667c19.997,0,34.854-2.524,43.88-6.533c6.824-3.014,8.782-5.523,8.782-14.32v-65.01
	C535.53,372.117,523.352,350.039,483.357,350.039z M507.241,457.965c0,2.249-0.72,2.754-2.662,3.504
	c-4.392,1.01-11.949,2.004-24.389,2.004c-19.033,0-22.919-6.531-22.919-16.812c0-10.297,4.863-16.312,23.394-16.312
	c9.501,0,21.45,0.994,26.561,1.255v26.361H507.241z"/>
</svg>
