<?xml version="1.0" encoding="utf-8"?>
<!-- Generator: Adobe Illustrator 18.0.0, SVG Export Plug-In . SVG Version: 6.00 Build 0)  -->
<!DOCTYPE svg PUBLIC "-//W3C//DTD SVG 1.1//EN" "http://www.w3.org/Graphics/SVG/1.1/DTD/svg11.dtd">
<svg version="1.1" id="Слой_1" xmlns="http://www.w3.org/2000/svg" xmlns:xlink="http://www.w3.org/1999/xlink" x="0px" y="0px"
	 viewBox="0 0 300 300" enable-background="new 0 0 300 300" xml:space="preserve">
<g>
	<path opacity="0.3" fill="#675F5C" enable-background="new    " d="M272.4,89.8c-1.3-13-4.1-25.8-7-25.5l-11.7,1.2
		c-1.9-1.3-4.2-1.9-6.7-1.6l-4.8,0.5l-2.6-25.1l-0.4-3.9l-0.5-5.4l-1.1-10.4c-0.8-7.7-7.6-13.3-15.3-12.5l-166,17.3
		c-7.6,0.8-13.2,7.7-12.3,15.4l0.2,12.8v0.1l0.1,3l0,0l0.2,11.8l-24.3-0.5c-6,0.6,5.5,9.6,6.5,19.3c1,9.7-2.6,14.5,3.4,13.9l15-1.6
		l1.5,68.6c0.4,3.5,2,6.5,4.4,8.8l0,0l0,0c0.4,0.3,0.7,0.6,1.1,0.9c0.1,0.1,0.1,0.1,0.1,0.1c0.3,0.2,0.7,0.5,1,0.7
		c0.1,0.1,0.1,0.1,0.2,0.1c0.3,0.2,0.7,0.4,1,0.5c0.1,0.1,0.2,0.1,0.3,0.1c0.3,0.1,0.7,0.3,1,0.4c0.1,0.1,0.2,0.1,0.4,0.1
		c0.3,0.1,0.7,0.2,1,0.3c0.1,0.1,0.3,0.1,0.4,0.1c0.3,0.1,0.7,0.1,1,0.2c0.2,0,0.3,0.1,0.5,0.1c0.4,0.1,0.7,0.1,1,0.1
		c0.1,0,0.3,0,0.4,0c0.5,0,1,0,1.5-0.1l45.8-4.8l-2.1,7c-0.2,0.7,0.4,1.3,1.3,1.9c-5.8,9.3-17.9,21.8-38.9,36.4
		c-21.5,14.9-32.5,33.5-30.1,51.3c1.6,12.2,9.5,21.8,21,25.8c4.6,1.6,9.8,2.1,15.2,1.6l0,0c12.8-1.3,25-8.4,33.4-19.4
		c7.1-9.4,14.8-25.9,10.5-51.5c-2.7-16.4-5.1-30.9-5.1-42.5c1,0,1.6-0.2,1.8-0.7l3.2-10.7l15.6-1.6l19.1,104.9
		c0.6,5.6,45.8,0.9,45.1-4.7l-9.5-90.8l17.8,13l4.7-5.8c0,0-15.7-13.6-15.7-23l43.3-4.5c7.7-0.8,13.3-7.7,12.5-15.4l-2.6-25.1
		l4.8-0.5c2.4-0.2,4.6-1.4,6.2-3l11.7-1.2C273.7,115.9,273.8,102.8,272.4,89.8L272.4,89.8z M101.5,274.9c-7,9.2-17.6,15.4-28.3,16.5
		l0,0c-4.3,0.4-8.4,0-12-1.2c-8.8-3-14.8-10.4-16-19.7c-1-7-0.2-25.4,26.9-44.1c10.8-7.4,24.9-17.9,34.5-30.6c0,0,2,21.8,3.9,33.3
		C114.4,252.1,107.7,266.7,101.5,274.9z"/>
	<g>
		<path fill="#34302E" d="M71.7,63.9c0,10.6-5.3,15.2-11.9,15.2H24.9c-6.5,0-2.1-4.8-2.1-15.4l0,0C22.8,53,11.4,42,17.9,42l41.9,5.3
			C66.4,47.3,71.7,53.3,71.7,63.9L71.7,63.9z"/>
		<path fill="#808080" d="M50.1,299.1L50.1,299.1c-5.9,0-11.5-1.2-16.3-3.4c-12-5.6-19.4-16.9-19.8-30.3
			C13.4,246,27.4,227,52.4,213.3c28.3-15.5,43.3-29.4,49.3-39.2c2.5-13.2,4-18.6,4.4-19.1l6.7-8.3l0.5,10.7c0.1,0.8-1.4,7.1-7.6,18
			c-2.4,13.2-1.3,31.2,0,52c1.7,28.2-8.4,45.3-17.2,54.6C78.1,292.8,64.1,299.1,50.1,299.1z M97,191.2
			c-11.8,12.7-28.3,22.4-40.8,29.2c-31.5,17.2-34.4,37-34.1,44.7c0.3,10.2,6,18.9,15.1,23.2c3.7,1.7,8.1,2.6,12.8,2.7l0,0
			c11.7,0,23.8-5.5,32.4-14.7c7.7-8.2,16.5-23.2,15-48.5C96.7,215,97,191.2,97,191.2z"/>
		<path fill="#FFFFFF" d="M97.5,176.1l8.3-20c1.1-2.6,4.1-3.8,6.6-2.7c2.6,1.1,3.8,4.1,2.7,6.7l-8.3,20
			C106.1,182,96.4,178.7,97.5,176.1z"/>
		<path fill="#4E4845" d="M35.1,153.5c0,8.4,6.8,15.3,15.2,15.3h192.9c8.4,0,15.2-6.8,15.2-15.3V36.7c0-1.5-0.2-2.9-0.6-4.2H45.1
			L35.1,153.5z"/>
		<path fill="#FFFFFF" d="M204.6,201.2l-29.7-26.8c0,0,31.7-18.6,23.1-9.9c-8.7,8.7,12.3,31,12.3,31L204.6,201.2z"/>
		<path fill="#4E4845" d="M283.8,66.7h-12.9c-1.9-1.6-4.4-2.5-7.1-2.5h-16.3c-2.7,0-5.1,1-7.1,2.5h-29.1c-6.2,0-6.2,56.9,0,56.9
			h29.1c1.9,1.6,4.4,2.5,7.1,2.5h16.3c2.7,0,5.1-1,7.1-2.5h12.9C290,123.6,290,66.7,283.8,66.7z"/>
		<path fill="#4E4845" d="M137.4,284.6c0,6.2,49.4,6.2,49.4,0V150.5c0-6.2-5-11.1-11.1-11.1h-37.2c-6.2,0-11.2,5-11.2,11.1
			L137.4,284.6z"/>
		<path fill="#34302E" d="M211.4,123.6h29.1c1.9,1.6,4.4,2.5,7.1,2.5h16.3c2.7,0,5.1-1,7.1-2.5h12.9c3.1,0,4.7-14.2,4.7-28.4h-81.7
			C206.8,109.4,208.3,123.6,211.4,123.6z"/>
		<path fill="#34302E" d="M258.5,153.5V26.6c0-6.7-4.3-2.2-10.3-4.2L38.8,163.5c2.8,3.2,6.9,5.3,11.5,5.3h192.9
			C251.8,168.8,258.5,162,258.5,153.5z"/>
		<path fill="#333333" d="M45.4,29.2v0.1V29.2z"/>
		<path fill="#FFFFFF" d="M258.5,15.3c0-8.4-6.8-15.3-15.1-15.3H61.8c-8.4,0-15.1,6.8-15.1,15.3l-1.2,13.9v0.1l-0.3,3.2l0,0h212.8
			h0.6V15.3z"/>
		<path fill="#F16564" d="M120.8,98.5c0,6.8-5.5,12.3-12.3,12.3s-12.3-5.5-12.3-12.3s5.5-12.3,12.3-12.3
			C115.3,86.2,120.8,91.7,120.8,98.5z"/>
		<path fill="#EFC31A" d="M158.3,98.5c0,6.8-5.5,12.3-12.3,12.3c-6.8,0-12.3-5.5-12.3-12.3s5.5-12.3,12.3-12.3
			C152.8,86.2,158.3,91.7,158.3,98.5z"/>
		<path fill="#5CC1A2" d="M195.8,98.5c0,6.8-5.5,12.3-12.3,12.3c-6.8,0-12.3-5.5-12.3-12.3s5.5-12.3,12.3-12.3
			C190.3,86.2,195.8,91.7,195.8,98.5z"/>
	</g>
</g>
</svg>
